<?xml version="1.0" encoding="UTF-8"?>
<svg xmlns="http://www.w3.org/2000/svg" width="125" height="125" version="1" shape-rendering="geometricPrecision" text-rendering="geometricPrecision" image-rendering="optimizeQuality" fill-rule="evenodd" clip-rule="evenodd">
   <path d="M63 0c34 0 62 28 62 63 0 34-28 62-62 62-35 0-63-28-63-62C0 28 28 0 63 0zm-7 42c-1-2-3-5-4-3-1 1-1 3-1 5h3c1-1 2-1 2-2zM26 63c-2-1-5-4-3-5 1-1 3 0 5 0 1 1 1 2 0 3 0 1-1 2-2 2zm44-21c2-2 4-5 5-3 1 1 0 3 0 5h-3l-2-2zM56 59c-1-2-3-5-4-3-1 1-1 3-1 5 1 0 2 1 3 0 1 0 2-1 2-2zm14 0c2-2 4-5 5-3 1 1 0 3 0 5-1 0-2 1-3 0-1 0-1-1-2-2zM56 78c-1-2-3-5-4-3-1 1-1 3-1 5 1 1 2 1 3 0 1 0 2-1 2-2zm14 0c2-2 4-5 5-3 1 1 0 3 0 5-1 1-2 1-3 0-1 0-1-1-2-2zM60 97c0-3 1-7 3-5 1 0 2 3 2 5h-5zm39-34c2-1 5-4 3-5-1-1-3 0-5 0-1 1-1 2 0 3 0 1 1 2 2 2zm-36 51c-11 0-17-15-21-32-9 0-26-14-31-18 0-1-1-1-1-1-2 1-5 2-5 0 0-1 1-3 3-4-1-2-1-5-1-7-2-1-5-4-3-5 1 0 3 0 5 1 1-1 1-2 2-2l3-3c0-2 0-5 2-5 1 1 2 2 3 4 3-1 7 1 10 4 2 1 5 6 9 10-1-6-1-11-1-14v-5c-2-1-4-3-3-5h5c1-4 4-7 7-10-1-1-2-4 0-4 1 0 2 1 4 2 3-2 6-3 10-3 1-3 2-6 3-5s2 3 2 5c4 0 8 1 11 3 1-1 3-2 5-2 1 1 0 3-1 5 3 3 5 6 6 9h5c1 2-1 4-3 5v5c0 4 0 10-1 17 4-6 8-11 11-13 2-3 5-4 8-4 1-2 2-3 3-4 2 0 2 2 2 5 2 0 3 1 5 3l1 1h4c1 1 0 3-2 4 1 3 0 6-1 9 1 1 2 2 2 3 0 2-2 1-4 0v1c-5 5-24 20-33 17-4 17-10 33-20 33z" fill="#ccc" />
</svg>