<?xml version="1.0" encoding="UTF-8"?>
<svg width="94px" height="25px" viewBox="0 0 94 25" version="1.1" xmlns="http://www.w3.org/2000/svg" xmlns:xlink="http://www.w3.org/1999/xlink">
    <!-- Generator: Sketch 43.2 (39069) - http://www.bohemiancoding.com/sketch -->
    <title>Group</title>
    <desc>Created with Sketch.</desc>
    <defs></defs>
    <g id="Page-1" stroke="none" stroke-width="1" fill="none" fill-rule="evenodd">
        <g id="Group">
            <rect id="Rectangle-1" fill="#195BA8" fill-rule="nonzero" x="0" y="0" width="69.2631579" height="25"></rect>
            <rect id="Rectangle-1" fill="#000000" fill-rule="nonzero" x="69" y="0" width="24.7368421" height="25"></rect>
            <path d="M87.1354177,20.9036274 C86.3287272,20.7380781 85.717598,20.0206974 85.5220367,18.9783495 C85.4364786,18.5246216 85.4487012,6.280099 85.5342593,5.86929128 C85.7053755,5.07833314 86.1820562,4.42226708 86.7687402,4.15861436 C87.0070806,4.05437957 87.2026419,4.01759082 87.5754307,4.01759082 C88.4126777,4.01145936 88.9504713,4.3302952 89.3354827,5.07220168 C89.7449393,5.85089691 89.7449393,5.84476545 89.7449393,12.4667406 C89.7449393,18.3713351 89.7327167,18.7944057 89.5249328,19.4627347 C89.1888117,20.5296085 88.2171163,21.1182285 87.1354177,20.9036274 L87.1354177,20.9036274 Z" id="Shape" fill="#FFFFFF" fill-rule="nonzero" transform="translate(87.604296, 12.482471) scale(-1, 1) rotate(-180.000000) translate(-87.604296, -12.482471) "></path>
            <path d="M74.5889358,20.9053013 C74.069476,20.7581463 73.6477969,20.4515733 73.3727888,20.0162398 C72.6761015,18.9187087 73.0305565,17.5636564 74.173368,16.9382476 L74.5583794,16.7297781 L77.0517864,16.7113837 L79.5451934,16.6929893 L79.5268595,14.228143 L79.5085257,11.7632967 L79.3435208,11.3157002 C79.1051804,10.6657656 78.8362836,10.230432 78.3473802,9.73991536 C77.5651349,8.96122014 76.6728863,8.56880679 75.6339667,8.55041242 C74.6194923,8.53201804 74.1978132,8.3909945 73.6722421,7.89434636 C73.2444517,7.49580156 73.0366678,6.99302197 73.0305565,6.3676132 C73.0305565,5.93227965 73.0550016,5.82804486 73.2322291,5.46628881 C73.4766808,4.96350921 73.9105825,4.5527015 74.3933745,4.3748892 C74.6867165,4.26452295 74.8700553,4.23999712 75.5178522,4.24612857 C76.666775,4.24612857 77.5956914,4.43007233 78.6651674,4.86540588 C80.8713437,5.76673027 82.6680635,7.70427115 83.4136411,9.9851737 C83.7925412,11.1378879 83.7742073,10.9110239 83.810875,16.1656839 L83.8475428,20.9911417 L79.3557434,20.9850102 C75.9761991,20.9788788 74.7967198,20.9604844 74.5889358,20.9053013 L74.5889358,20.9053013 Z" id="Shape" fill="#FFFFFF" fill-rule="nonzero" transform="translate(78.431900, 12.618200) scale(-1, 1) rotate(-180.000000) translate(-78.431900, -12.618200) "></path>
            <path d="M74.9250569,15.0132471 C74.46671,14.9028808 74.0633648,14.6760168 73.7516889,14.357181 C73.3727888,13.9647677 73.2627855,13.7808239 73.1100033,13.2964387 C72.5905435,11.5918933 74.0939212,9.88734783 75.8539732,10.1939207 C77.7729188,10.5250195 78.5612754,12.7936591 77.2717929,14.2652091 C76.7095541,14.9090123 75.7623038,15.2094537 74.9250569,15.0132471 L74.9250569,15.0132471 Z" id="Shape" fill="#FFFFFF" fill-rule="nonzero" transform="translate(75.454823, 12.615273) scale(-1, 1) rotate(-180.000000) translate(-75.454823, -12.615273) "></path>
            <path d="M3.19900038,5.8799999 C3.19900038,6.1499999 3.45100038,6.1499999 3.53200038,6.1499999 L3.54100038,6.1499999 L4.18900038,10.8569999 C4.23400038,11.1719999 4.45000038,11.1719999 4.55800038,11.1719999 C4.63900038,11.1719999 4.81900038,11.1719999 4.90900038,10.9919999 C4.93600038,10.9289999 5.42200038,8.8229999 5.45800038,8.4629999 L5.46700038,8.4629999 C5.50300038,8.8679999 5.98900038,10.9289999 5.99800038,10.9469999 C6.06100038,11.1719999 6.29500038,11.1719999 6.35800038,11.1719999 C6.46600038,11.1719999 6.68200038,11.1719999 6.72700038,10.8569999 L7.37500038,6.1499999 C7.47400038,6.1499999 7.71700038,6.1499999 7.71700038,5.8799999 C7.71700038,5.6009999 7.48300038,5.6009999 7.34800038,5.6009999 L6.63700038,5.6009999 C6.49300038,5.6009999 6.27700038,5.6009999 6.27700038,5.8799999 C6.27700038,6.1499999 6.50200038,6.1499999 6.63700038,6.1499999 L6.86200038,6.1499999 L6.46600038,9.1469999 C6.39400038,9.6959999 6.33100038,10.1639999 6.32200038,10.4159999 L6.31300038,10.4159999 C6.25900038,9.8399999 5.83600038,8.0579999 5.82700038,8.0039999 C5.74600038,7.7969999 5.53900038,7.7969999 5.45800038,7.7969999 C5.36800038,7.7969999 5.18800038,7.7969999 5.09800038,7.9949999 C5.07100038,8.0579999 4.64800038,9.8579999 4.60300038,10.4159999 L4.59400038,10.4159999 C4.59400038,10.3709999 4.58500038,10.1999999 4.52200038,9.7139999 L4.05400038,6.1499999 L4.27900038,6.1499999 C4.41400038,6.1499999 4.63900038,6.1499999 4.63900038,5.8799999 C4.63900038,5.6009999 4.42300038,5.6009999 4.27900038,5.6009999 L3.56800038,5.6009999 C3.43300038,5.6009999 3.19900038,5.6009999 3.19900038,5.8799999 Z M8.32000038,9.1469999 C8.32000038,8.0399999 9.18400038,7.1399999 10.2550004,7.1399999 C11.4250004,7.1399999 12.0010004,8.0219999 12.0010004,9.0479999 C12.0010004,9.3809999 11.8300004,9.3809999 11.6410004,9.3809999 L8.95900038,9.3809999 C9.10300038,10.1549999 9.77800038,10.6049999 10.4530004,10.6049999 C10.7050004,10.6049999 11.1910004,10.5239999 11.3890004,10.0649999 C11.4520004,9.8939999 11.5240004,9.8669999 11.6860004,9.8669999 C11.7400004,9.8669999 12.0010004,9.8669999 12.0010004,10.1189999 C12.0010004,10.3439999 11.5780004,11.1539999 10.3900004,11.1539999 C9.22900038,11.1539999 8.32000038,10.2449999 8.32000038,9.1469999 Z M8.96800038,8.8409999 L11.3620004,8.8409999 C11.2810004,7.9139999 10.7230004,7.6889999 10.2550004,7.6889999 C9.62500038,7.6889999 9.09400038,8.1839999 8.96800038,8.8409999 Z M17.5630004,10.8209999 C17.5630004,11.0999999 17.7790004,11.0999999 17.9230004,11.0999999 L20.2720004,11.0999999 C20.4070004,11.0999999 20.6410004,11.0999999 20.6410004,10.8299999 C20.6410004,10.5509999 20.4070004,10.5509999 20.2720004,10.5509999 L19.2730004,10.5509999 L19.2730004,9.4259999 C19.2730004,8.5799999 19.8040004,7.7159999 20.8930004,7.7159999 C20.9020004,7.9319999 21.0550004,8.1119999 21.2800004,8.1119999 C21.4780004,8.1119999 21.6580004,7.9679999 21.6580004,7.7249999 C21.6580004,7.5449999 21.5500004,7.1669999 20.8030004,7.1669999 C20.3440004,7.1669999 19.7680004,7.3289999 19.2730004,7.8959999 L19.2730004,7.5899999 C19.2730004,7.3109999 19.2190004,7.2209999 18.9130004,7.2209999 L17.9230004,7.2209999 C17.7880004,7.2209999 17.5630004,7.2209999 17.5630004,7.4909999 C17.5630004,7.7699999 17.7790004,7.7699999 17.9230004,7.7699999 L18.6520004,7.7699999 L18.6520004,10.5509999 L17.9230004,10.5509999 C17.7880004,10.5509999 17.5630004,10.5509999 17.5630004,10.8209999 Z M22.4950004,9.1469999 C22.4950004,8.0399999 23.3590004,7.1399999 24.4300004,7.1399999 C25.6000004,7.1399999 26.1760004,8.0219999 26.1760004,9.0479999 C26.1760004,9.3809999 26.0050004,9.3809999 25.8160004,9.3809999 L23.1340004,9.3809999 C23.2780004,10.1549999 23.9530004,10.6049999 24.6280004,10.6049999 C24.8800004,10.6049999 25.3660004,10.5239999 25.5640004,10.0649999 C25.6270004,9.8939999 25.6990004,9.8669999 25.8610004,9.8669999 C25.9150004,9.8669999 26.1760004,9.8669999 26.1760004,10.1189999 C26.1760004,10.3439999 25.7530004,11.1539999 24.5650004,11.1539999 C23.4040004,11.1539999 22.4950004,10.2449999 22.4950004,9.1469999 Z M23.1430004,8.8409999 L25.5370004,8.8409999 C25.4560004,7.9139999 24.8980004,7.6889999 24.4300004,7.6889999 C23.8000004,7.6889999 23.2690004,8.1839999 23.1430004,8.8409999 Z M27.3820004,9.1559999 C27.3820004,10.2359999 28.2280004,11.1539999 29.3620004,11.1539999 C30.6130004,11.1539999 30.9190004,10.2719999 30.9190004,10.1189999 C30.9190004,9.8669999 30.6580004,9.8669999 30.6040004,9.8669999 C30.4600004,9.8669999 30.3700004,9.8849999 30.3070004,10.0649999 C30.2530004,10.1819999 30.0820004,10.6049999 29.4160004,10.6049999 C28.6510004,10.6049999 28.0030004,9.9749999 28.0030004,9.1559999 C28.0030004,8.7239999 28.2550004,7.6889999 29.4700004,7.6889999 C29.6590004,7.6889999 30.0100004,7.6889999 30.0100004,7.7699999 C30.0190004,8.0849999 30.1900004,8.2109999 30.4060004,8.2109999 C30.6220004,8.2109999 30.8110004,8.0579999 30.8110004,7.7969999 C30.8110004,7.1399999 29.8750004,7.1399999 29.4700004,7.1399999 C27.9220004,7.1399999 27.3820004,8.3639999 27.3820004,9.1559999 Z M31.9630004,9.1559999 C31.9630004,8.0309999 32.8000004,7.1399999 33.8080004,7.1399999 C34.8160004,7.1399999 35.6530004,8.0309999 35.6530004,9.1559999 C35.6530004,10.2899999 34.7980004,11.1539999 33.8080004,11.1539999 C32.8180004,11.1539999 31.9630004,10.2989999 31.9630004,9.1559999 Z M32.5840004,9.0929999 C32.5840004,9.9299999 33.1420004,10.6049999 33.8080004,10.6049999 C34.4740004,10.6049999 35.0320004,9.9299999 35.0320004,9.0929999 C35.0320004,8.2739999 34.4560004,7.6889999 33.8080004,7.6889999 C33.1690004,7.6889999 32.5840004,8.2739999 32.5840004,9.0929999 Z M36.1390004,10.8299999 C36.1390004,10.5509999 36.3280004,10.5509999 36.6520004,10.5509999 L36.6520004,7.7699999 C36.3280004,7.7699999 36.1390004,7.7699999 36.1390004,7.4909999 C36.1390004,7.2209999 36.3730004,7.2209999 36.5080004,7.2209999 L36.7960004,7.2209999 C36.9580004,7.2209999 37.1380004,7.2209999 37.1560004,7.4909999 C37.3720004,7.2929999 37.6960004,7.1669999 37.9840004,7.1669999 C38.2810004,7.1669999 38.5330004,7.3289999 38.6680004,7.6349999 C38.9200004,7.2839999 39.3430004,7.1669999 39.6130004,7.1669999 C40.4140004,7.1669999 40.4140004,8.1929999 40.4140004,8.3729999 L40.4140004,10.5509999 C40.7380004,10.5509999 40.9270004,10.5509999 40.9270004,10.8299999 C40.9270004,11.0999999 40.6930004,11.0999999 40.5580004,11.0999999 L39.8380004,11.0999999 C39.7120004,11.0999999 39.4690004,11.0999999 39.4690004,10.8299999 C39.4690004,10.5509999 39.6940004,10.5509999 39.9100004,10.5509999 L39.9100004,8.4539999 C39.9100004,7.8689999 39.7840004,7.7159999 39.5770004,7.7159999 C39.2080004,7.7159999 38.7850004,8.1389999 38.7850004,8.9399999 L38.7850004,10.5509999 C39.1090004,10.5509999 39.2980004,10.5509999 39.2980004,10.8299999 C39.2980004,11.0999999 39.0640004,11.0999999 38.9290004,11.0999999 L38.2090004,11.0999999 C38.0830004,11.0999999 37.8400004,11.0999999 37.8400004,10.8299999 C37.8400004,10.5509999 38.0650004,10.5509999 38.2810004,10.5509999 L38.2810004,8.4539999 C38.2810004,7.8689999 38.1550004,7.7159999 37.9480004,7.7159999 C37.5790004,7.7159999 37.1560004,8.1389999 37.1560004,8.9399999 L37.1560004,10.5509999 C37.4800004,10.5509999 37.6690004,10.5509999 37.6690004,10.8299999 C37.6690004,11.0999999 37.4350004,11.0999999 37.3000004,11.0999999 L36.5080004,11.0999999 C36.3820004,11.0999999 36.1390004,11.0999999 36.1390004,10.8299999 Z M40.8640004,10.8299999 C40.8640004,10.5509999 41.0530004,10.5509999 41.3770004,10.5509999 L41.3770004,7.7699999 C41.0530004,7.7699999 40.8640004,7.7699999 40.8640004,7.4909999 C40.8640004,7.2209999 41.0980004,7.2209999 41.2330004,7.2209999 L41.5210004,7.2209999 C41.6830004,7.2209999 41.8630004,7.2209999 41.8810004,7.4909999 C42.0970004,7.2929999 42.4210004,7.1669999 42.7090004,7.1669999 C43.0060004,7.1669999 43.2580004,7.3289999 43.3930004,7.6349999 C43.6450004,7.2839999 44.0680004,7.1669999 44.3380004,7.1669999 C45.1390004,7.1669999 45.1390004,8.1929999 45.1390004,8.3729999 L45.1390004,10.5509999 C45.4630004,10.5509999 45.6520004,10.5509999 45.6520004,10.8299999 C45.6520004,11.0999999 45.4180004,11.0999999 45.2830004,11.0999999 L44.5630004,11.0999999 C44.4370004,11.0999999 44.1940004,11.0999999 44.1940004,10.8299999 C44.1940004,10.5509999 44.4190004,10.5509999 44.6350004,10.5509999 L44.6350004,8.4539999 C44.6350004,7.8689999 44.5090004,7.7159999 44.3020004,7.7159999 C43.9330004,7.7159999 43.5100004,8.1389999 43.5100004,8.9399999 L43.5100004,10.5509999 C43.8340004,10.5509999 44.0230004,10.5509999 44.0230004,10.8299999 C44.0230004,11.0999999 43.7890004,11.0999999 43.6540004,11.0999999 L42.9340004,11.0999999 C42.8080004,11.0999999 42.5650004,11.0999999 42.5650004,10.8299999 C42.5650004,10.5509999 42.7900004,10.5509999 43.0060004,10.5509999 L43.0060004,8.4539999 C43.0060004,7.8689999 42.8800004,7.7159999 42.6730004,7.7159999 C42.3040004,7.7159999 41.8810004,8.1389999 41.8810004,8.9399999 L41.8810004,10.5509999 C42.2050004,10.5509999 42.3940004,10.5509999 42.3940004,10.8299999 C42.3940004,11.0999999 42.1600004,11.0999999 42.0250004,11.0999999 L41.2330004,11.0999999 C41.1070004,11.0999999 40.8640004,11.0999999 40.8640004,10.8299999 Z M46.1200004,9.1469999 C46.1200004,8.0399999 46.9840004,7.1399999 48.0550004,7.1399999 C49.2250004,7.1399999 49.8010004,8.0219999 49.8010004,9.0479999 C49.8010004,9.3809999 49.6300004,9.3809999 49.4410004,9.3809999 L46.7590004,9.3809999 C46.9030004,10.1549999 47.5780004,10.6049999 48.2530004,10.6049999 C48.5050004,10.6049999 48.9910004,10.5239999 49.1890004,10.0649999 C49.2520004,9.8939999 49.3240004,9.8669999 49.4860004,9.8669999 C49.5400004,9.8669999 49.8010004,9.8669999 49.8010004,10.1189999 C49.8010004,10.3439999 49.3780004,11.1539999 48.1900004,11.1539999 C47.0290004,11.1539999 46.1200004,10.2449999 46.1200004,9.1469999 Z M46.7680004,8.8409999 L49.1620004,8.8409999 C49.0810004,7.9139999 48.5230004,7.6889999 48.0550004,7.6889999 C47.4250004,7.6889999 46.8940004,8.1839999 46.7680004,8.8409999 Z M50.4580004,10.8299999 C50.4580004,11.0999999 50.6920004,11.0999999 50.8180004,11.0999999 L52.2490004,11.0999999 C52.3750004,11.0999999 52.6090004,11.0999999 52.6090004,10.8299999 C52.6090004,10.5509999 52.3840004,10.5509999 52.2400004,10.5509999 L51.8440004,10.5509999 L51.8440004,8.9579999 C51.8440004,8.0579999 52.5100004,7.7159999 52.9690004,7.7159999 C53.4460004,7.7159999 53.5720004,7.9679999 53.5720004,8.5079999 L53.5720004,10.5509999 L53.2210004,10.5509999 C53.0770004,10.5509999 52.8520004,10.5509999 52.8520004,10.8299999 C52.8520004,11.0999999 53.0950004,11.0999999 53.2210004,11.0999999 L54.5980004,11.0999999 C54.7240004,11.0999999 54.9580004,11.0999999 54.9580004,10.8299999 C54.9580004,10.5509999 54.7330004,10.5509999 54.5890004,10.5509999 L54.1930004,10.5509999 L54.1930004,8.4629999 C54.1930004,7.5539999 53.7340004,7.1669999 53.0230004,7.1669999 C52.4200004,7.1669999 52.0150004,7.4729999 51.8440004,7.6439999 C51.8440004,7.3559999 51.8440004,7.2209999 51.4840004,7.2209999 L50.8270004,7.2209999 C50.6830004,7.2209999 50.4580004,7.2209999 50.4580004,7.4999999 C50.4580004,7.7699999 50.6920004,7.7699999 50.8180004,7.7699999 L51.2230004,7.7699999 L51.2230004,10.5509999 L50.8270004,10.5509999 C50.6830004,10.5509999 50.4580004,10.5509999 50.4580004,10.8299999 Z M55.3990004,9.1649999 C55.3990004,8.0219999 56.2630004,7.1669999 57.2440004,7.1669999 C57.6310004,7.1669999 58.0000004,7.3109999 58.2970004,7.5719999 L58.2970004,6.1499999 L57.8920004,6.1499999 C57.7660004,6.1499999 57.5320004,6.1499999 57.5320004,5.8799999 C57.5320004,5.6009999 57.7570004,5.6009999 57.9010004,5.6009999 L58.5580004,5.6009999 C58.8640004,5.6009999 58.9180004,5.6909999 58.9180004,5.9699999 L58.9180004,10.5509999 L59.3230004,10.5509999 C59.4490004,10.5509999 59.6830004,10.5509999 59.6830004,10.8209999 C59.6830004,11.0999999 59.4580004,11.0999999 59.3140004,11.0999999 L58.6570004,11.0999999 C58.2970004,11.0999999 58.2970004,10.9739999 58.2970004,10.6499999 C58.0450004,10.9109999 57.6670004,11.1539999 57.1630004,11.1539999 C56.2090004,11.1539999 55.3990004,10.2809999 55.3990004,9.1649999 Z M56.0200004,9.1649999 C56.0200004,9.9659999 56.5600004,10.6049999 57.1990004,10.6049999 C57.8920004,10.6049999 58.2970004,9.8579999 58.2970004,9.3539999 L58.2970004,8.7149999 C58.2970004,8.2199999 57.8560004,7.7159999 57.2800004,7.7159999 C56.6500004,7.7159999 56.0200004,8.3009999 56.0200004,9.1649999 Z M3.81100038,19.8209999 C3.81100038,20.0999999 4.04500038,20.0999999 4.18000038,20.0999999 L6.74500038,20.0999999 C6.88000038,20.0999999 7.11400038,20.0999999 7.11400038,19.8299999 C7.11400038,19.5509999 6.88000038,19.5509999 6.74500038,19.5509999 L5.77300038,19.5509999 L5.77300038,15.1499999 L6.74500038,15.1499999 C6.88000038,15.1499999 7.11400038,15.1499999 7.11400038,14.8799999 C7.11400038,14.6009999 6.88000038,14.6009999 6.74500038,14.6009999 L4.18000038,14.6009999 C4.04500038,14.6009999 3.81100038,14.6009999 3.81100038,14.8709999 C3.81100038,15.1499999 4.04500038,15.1499999 4.18000038,15.1499999 L5.15200038,15.1499999 L5.15200038,19.5509999 L4.18000038,19.5509999 C4.04500038,19.5509999 3.81100038,19.5509999 3.81100038,19.8209999 Z M7.93300038,19.8299999 C7.93300038,20.0999999 8.16700038,20.0999999 8.29300038,20.0999999 L9.72400038,20.0999999 C9.85000038,20.0999999 10.0840004,20.0999999 10.0840004,19.8299999 C10.0840004,19.5509999 9.85900038,19.5509999 9.71500038,19.5509999 L9.31900038,19.5509999 L9.31900038,17.9579999 C9.31900038,17.0579999 9.98500038,16.7159999 10.4440004,16.7159999 C10.9210004,16.7159999 11.0470004,16.9679999 11.0470004,17.5079999 L11.0470004,19.5509999 L10.6960004,19.5509999 C10.5520004,19.5509999 10.3270004,19.5509999 10.3270004,19.8299999 C10.3270004,20.0999999 10.5700004,20.0999999 10.6960004,20.0999999 L12.0730004,20.0999999 C12.1990004,20.0999999 12.4330004,20.0999999 12.4330004,19.8299999 C12.4330004,19.5509999 12.2080004,19.5509999 12.0640004,19.5509999 L11.6680004,19.5509999 L11.6680004,17.4629999 C11.6680004,16.5539999 11.2090004,16.1669999 10.4980004,16.1669999 C9.89500038,16.1669999 9.49000038,16.4729999 9.31900038,16.6439999 C9.31900038,16.3559999 9.31900038,16.2209999 8.95900038,16.2209999 L8.30200038,16.2209999 C8.15800038,16.2209999 7.93300038,16.2209999 7.93300038,16.4999999 C7.93300038,16.7699999 8.16700038,16.7699999 8.29300038,16.7699999 L8.69800038,16.7699999 L8.69800038,19.5509999 L8.30200038,19.5509999 C8.15800038,19.5509999 7.93300038,19.5509999 7.93300038,19.8299999 Z M12.7750004,16.4999999 C12.7750004,16.7699999 13.0000004,16.7699999 13.1350004,16.7699999 L13.9270004,16.7699999 L13.9270004,18.9659999 C13.9270004,19.8299999 14.5390004,20.1539999 15.1960004,20.1539999 C15.8620004,20.1539999 16.5910004,19.7669999 16.5910004,18.9659999 C16.5910004,18.8039999 16.5910004,18.6149999 16.2760004,18.6149999 C15.9790004,18.6149999 15.9700004,18.8039999 15.9700004,18.9569999 C15.9610004,19.5149999 15.4480004,19.6049999 15.2410004,19.6049999 C14.5480004,19.6049999 14.5480004,19.1369999 14.5480004,18.9119999 L14.5480004,16.7699999 L16.0240004,16.7699999 C16.1590004,16.7699999 16.3840004,16.7699999 16.3840004,16.4999999 C16.3840004,16.2209999 16.1680004,16.2209999 16.0240004,16.2209999 L14.5480004,16.2209999 L14.5480004,15.4829999 C14.5480004,15.3119999 14.5480004,15.1139999 14.2420004,15.1139999 C13.9270004,15.1139999 13.9270004,15.3029999 13.9270004,15.4829999 L13.9270004,16.2209999 L13.1440004,16.2209999 C13.0000004,16.2209999 12.7750004,16.2209999 12.7750004,16.4999999 Z M17.7700004,18.1469999 C17.7700004,17.0399999 18.6340004,16.1399999 19.7050004,16.1399999 C20.8750004,16.1399999 21.4510004,17.0219999 21.4510004,18.0479999 C21.4510004,18.3809999 21.2800004,18.3809999 21.0910004,18.3809999 L18.4090004,18.3809999 C18.5530004,19.1549999 19.2280004,19.6049999 19.9030004,19.6049999 C20.1550004,19.6049999 20.6410004,19.5239999 20.8390004,19.0649999 C20.9020004,18.8939999 20.9740004,18.8669999 21.1360004,18.8669999 C21.1900004,18.8669999 21.4510004,18.8669999 21.4510004,19.1189999 C21.4510004,19.3439999 21.0280004,20.1539999 19.8400004,20.1539999 C18.6790004,20.1539999 17.7700004,19.2449999 17.7700004,18.1469999 Z M18.4180004,17.8409999 L20.8120004,17.8409999 C20.7310004,16.9139999 20.1730004,16.6889999 19.7050004,16.6889999 C19.0750004,16.6889999 18.5440004,17.1839999 18.4180004,17.8409999 Z M22.5220004,19.8299999 C22.5220004,20.0999999 22.7560004,20.0999999 22.8820004,20.0999999 L25.8430004,20.0999999 C25.9780004,20.0999999 26.2030004,20.0999999 26.2030004,19.8299999 C26.2030004,19.5509999 25.9870004,19.5509999 25.8430004,19.5509999 L24.6730004,19.5509999 L24.6730004,14.9699999 C24.6730004,14.6909999 24.6190004,14.6009999 24.3130004,14.6009999 L22.8910004,14.6009999 C22.7470004,14.6009999 22.5220004,14.6009999 22.5220004,14.8799999 C22.5220004,15.1499999 22.7560004,15.1499999 22.8820004,15.1499999 L24.0520004,15.1499999 L24.0520004,19.5509999 L22.8910004,19.5509999 C22.7470004,19.5509999 22.5220004,19.5509999 22.5220004,19.8299999 Z M27.2470004,19.8299999 C27.2470004,20.0999999 27.4810004,20.0999999 27.6070004,20.0999999 L30.5680004,20.0999999 C30.7030004,20.0999999 30.9280004,20.0999999 30.9280004,19.8299999 C30.9280004,19.5509999 30.7120004,19.5509999 30.5680004,19.5509999 L29.3980004,19.5509999 L29.3980004,14.9699999 C29.3980004,14.6909999 29.3440004,14.6009999 29.0380004,14.6009999 L27.6160004,14.6009999 C27.4720004,14.6009999 27.2470004,14.6009999 27.2470004,14.8799999 C27.2470004,15.1499999 27.4810004,15.1499999 27.6070004,15.1499999 L28.7770004,15.1499999 L28.7770004,19.5509999 L27.6160004,19.5509999 C27.4720004,19.5509999 27.2470004,19.5509999 27.2470004,19.8299999 Z M33.3310004,15.0419999 C33.3310004,15.2939999 33.5290004,15.4919999 33.7810004,15.4919999 C34.0330004,15.4919999 34.2310004,15.2939999 34.2310004,15.0419999 C34.2310004,14.7899999 34.0330004,14.5919999 33.7810004,14.5919999 C33.5290004,14.5919999 33.3310004,14.7899999 33.3310004,15.0419999 Z M32.1520004,19.8299999 C32.1520004,20.0999999 32.3860004,20.0999999 32.5210004,20.0999999 L35.1760004,20.0999999 C35.3110004,20.0999999 35.5450004,20.0999999 35.5450004,19.8299999 C35.5450004,19.5509999 35.3110004,19.5509999 35.1760004,19.5509999 L34.2310004,19.5509999 L34.2310004,16.5899999 C34.2310004,16.3109999 34.1770004,16.2209999 33.8710004,16.2209999 L32.5930004,16.2209999 C32.4580004,16.2209999 32.2240004,16.2209999 32.2240004,16.4909999 C32.2240004,16.7699999 32.4580004,16.7699999 32.5930004,16.7699999 L33.6100004,16.7699999 L33.6100004,19.5509999 L32.5210004,19.5509999 C32.3770004,19.5509999 32.1520004,19.5509999 32.1520004,19.8299999 Z M36.8140004,19.2089999 C36.8140004,19.7759999 37.4080004,20.1989999 38.3080004,20.1989999 C39.1090004,20.1989999 39.8380004,19.7129999 39.8380004,18.8939999 L39.8380004,15.1499999 L40.1080004,15.1499999 C40.2520004,15.1499999 40.4770004,15.1499999 40.4770004,14.8709999 C40.4770004,14.6009999 40.2430004,14.6009999 40.1080004,14.6009999 L38.4790004,14.6009999 C38.3440004,14.6009999 38.1100004,14.6009999 38.1100004,14.8709999 C38.1100004,15.1499999 38.3440004,15.1499999 38.4790004,15.1499999 L39.2170004,15.1499999 L39.2170004,18.8399999 C39.2170004,19.6049999 38.4790004,19.6499999 38.3080004,19.6499999 C38.2360004,19.6499999 37.8040004,19.6499999 37.5430004,19.4159999 C37.5790004,19.3709999 37.6150004,19.3259999 37.6150004,19.1819999 C37.6150004,18.9659999 37.4440004,18.7859999 37.2190004,18.7859999 C37.0120004,18.7859999 36.8140004,18.9209999 36.8140004,19.2089999 Z M46.3360004,19.8209999 C46.3360004,20.0999999 46.5700004,20.0999999 46.7050004,20.0999999 L49.2700004,20.0999999 C49.4050004,20.0999999 49.6390004,20.0999999 49.6390004,19.8299999 C49.6390004,19.5509999 49.4050004,19.5509999 49.2700004,19.5509999 L48.2980004,19.5509999 L48.2980004,15.1499999 L49.2700004,15.1499999 C49.4050004,15.1499999 49.6390004,15.1499999 49.6390004,14.8799999 C49.6390004,14.6009999 49.4050004,14.6009999 49.2700004,14.6009999 L46.7050004,14.6009999 C46.5700004,14.6009999 46.3360004,14.6009999 46.3360004,14.8709999 C46.3360004,15.1499999 46.5700004,15.1499999 46.7050004,15.1499999 L47.6770004,15.1499999 L47.6770004,19.5509999 L46.7050004,19.5509999 C46.5700004,19.5509999 46.3360004,19.5509999 46.3360004,19.8209999 Z M50.5210004,19.8299999 C50.5210004,19.5509999 50.7460004,19.5509999 50.8900004,19.5509999 L51.0880004,19.5509999 L51.0880004,15.1499999 L50.8900004,15.1499999 C50.7550004,15.1499999 50.5210004,15.1499999 50.5210004,14.8799999 C50.5210004,14.6009999 50.7460004,14.6009999 50.8900004,14.6009999 L52.7440004,14.6009999 C53.9410004,14.6009999 54.7150004,15.9509999 54.7150004,17.3909999 C54.7150004,18.8399999 53.9230004,20.0999999 52.7440004,20.0999999 L50.8900004,20.0999999 C50.7550004,20.0999999 50.5210004,20.0999999 50.5210004,19.8299999 Z M51.7090004,19.5509999 L52.5730004,19.5509999 C53.5720004,19.5509999 54.0940004,18.4439999 54.0940004,17.3909999 C54.0940004,16.3469999 53.5900004,15.1499999 52.5730004,15.1499999 L51.7090004,15.1499999 L51.7090004,19.5509999 Z M55.3090004,19.8299999 C55.3090004,20.0999999 55.5430004,20.0999999 55.6780004,20.0999999 L59.2330004,20.0999999 C59.5300004,20.0999999 59.5930004,20.0189999 59.5930004,19.7309999 L59.5930004,18.9299999 C59.5930004,18.7589999 59.5930004,18.5609999 59.2870004,18.5609999 C58.9720004,18.5609999 58.9720004,18.7499999 58.9720004,18.9299999 L58.9720004,19.5509999 L56.5690004,19.5509999 L56.5690004,17.5259999 L57.7480004,17.5259999 C57.7480004,17.8949999 57.7480004,18.0389999 58.0630004,18.0389999 C58.3690004,18.0389999 58.3690004,17.8409999 58.3690004,17.6699999 L58.3690004,16.8329999 C58.3690004,16.6619999 58.3690004,16.4639999 58.0630004,16.4639999 C57.7480004,16.4639999 57.7480004,16.6079999 57.7480004,16.9769999 L56.5690004,16.9769999 L56.5690004,15.1499999 L58.7740004,15.1499999 L58.7740004,15.6269999 C58.7740004,15.7979999 58.7740004,15.9959999 59.0800004,15.9959999 C59.3950004,15.9959999 59.3950004,15.8069999 59.3950004,15.6269999 L59.3950004,14.9699999 C59.3950004,14.6909999 59.3410004,14.6009999 59.0350004,14.6009999 L55.6780004,14.6009999 C55.5430004,14.6009999 55.3090004,14.6009999 55.3090004,14.8709999 C55.3090004,15.1499999 55.5430004,15.1499999 55.6780004,15.1499999 L55.9480004,15.1499999 L55.9480004,19.5509999 L55.6780004,19.5509999 C55.5340004,19.5509999 55.3090004,19.5509999 55.3090004,19.8299999 Z M60.0430004,19.8299999 C60.0430004,19.7129999 60.0970004,19.6229999 60.1960004,19.5689999 C60.2500004,19.5509999 60.4570004,19.5509999 60.5830004,19.5509999 L61.6720004,14.8349999 C61.7530004,14.4929999 61.8970004,14.4929999 62.1580004,14.4929999 C62.4370004,14.4929999 62.5630004,14.5019999 62.6440004,14.8439999 L63.7330004,19.5509999 C63.8680004,19.5509999 64.0660004,19.5509999 64.1200004,19.5779999 C64.2280004,19.6229999 64.2730004,19.7129999 64.2730004,19.8299999 C64.2730004,20.0999999 64.0390004,20.0999999 63.8860004,20.0999999 L62.9680004,20.0999999 C62.8060004,20.0999999 62.5900004,20.0999999 62.5900004,19.8299999 C62.5900004,19.5509999 62.7700004,19.5509999 63.0940004,19.5509999 L62.8870004,18.6149999 L61.4290004,18.6149999 L61.2220004,19.5509999 C61.5460004,19.5509999 61.7260004,19.5509999 61.7260004,19.8299999 C61.7260004,20.0999999 61.5100004,20.0999999 61.3480004,20.0999999 L60.4300004,20.0999999 C60.2770004,20.0999999 60.0430004,20.0999999 60.0430004,19.8299999 Z M61.5640004,18.0659999 L62.7520004,18.0659999 L62.1580004,15.2399999 L61.5640004,18.0659999 Z" id="We-recommend-Intelli" fill="#000000"></path>
            <path d="M3.099,5.78 C3.099,6.05 3.351,6.05 3.432,6.05 L3.441,6.05 L4.089,10.757 C4.134,11.072 4.35,11.072 4.458,11.072 C4.539,11.072 4.719,11.072 4.809,10.892 C4.836,10.829 5.322,8.723 5.358,8.363 L5.367,8.363 C5.403,8.768 5.889,10.829 5.898,10.847 C5.961,11.072 6.195,11.072 6.258,11.072 C6.366,11.072 6.582,11.072 6.627,10.757 L7.275,6.05 C7.374,6.05 7.617,6.05 7.617,5.78 C7.617,5.501 7.383,5.501 7.248,5.501 L6.537,5.501 C6.393,5.501 6.177,5.501 6.177,5.78 C6.177,6.05 6.402,6.05 6.537,6.05 L6.762,6.05 L6.366,9.047 C6.294,9.596 6.231,10.064 6.222,10.316 L6.213,10.316 C6.159,9.74 5.736,7.958 5.727,7.904 C5.646,7.697 5.439,7.697 5.358,7.697 C5.268,7.697 5.088,7.697 4.998,7.895 C4.971,7.958 4.548,9.758 4.503,10.316 L4.494,10.316 C4.494,10.271 4.485,10.1 4.422,9.614 L3.954,6.05 L4.179,6.05 C4.314,6.05 4.539,6.05 4.539,5.78 C4.539,5.501 4.323,5.501 4.179,5.501 L3.468,5.501 C3.333,5.501 3.099,5.501 3.099,5.78 Z M8.22,9.047 C8.22,7.94 9.084,7.04 10.155,7.04 C11.325,7.04 11.901,7.922 11.901,8.948 C11.901,9.281 11.73,9.281 11.541,9.281 L8.859,9.281 C9.003,10.055 9.678,10.505 10.353,10.505 C10.605,10.505 11.091,10.424 11.289,9.965 C11.352,9.794 11.424,9.767 11.586,9.767 C11.64,9.767 11.901,9.767 11.901,10.019 C11.901,10.244 11.478,11.054 10.29,11.054 C9.129,11.054 8.22,10.145 8.22,9.047 Z M8.868,8.741 L11.262,8.741 C11.181,7.814 10.623,7.589 10.155,7.589 C9.525,7.589 8.994,8.084 8.868,8.741 Z M17.463,10.721 C17.463,11 17.679,11 17.823,11 L20.172,11 C20.307,11 20.541,11 20.541,10.73 C20.541,10.451 20.307,10.451 20.172,10.451 L19.173,10.451 L19.173,9.326 C19.173,8.48 19.704,7.616 20.793,7.616 C20.802,7.832 20.955,8.012 21.18,8.012 C21.378,8.012 21.558,7.868 21.558,7.625 C21.558,7.445 21.45,7.067 20.703,7.067 C20.244,7.067 19.668,7.229 19.173,7.796 L19.173,7.49 C19.173,7.211 19.119,7.121 18.813,7.121 L17.823,7.121 C17.688,7.121 17.463,7.121 17.463,7.391 C17.463,7.67 17.679,7.67 17.823,7.67 L18.552,7.67 L18.552,10.451 L17.823,10.451 C17.688,10.451 17.463,10.451 17.463,10.721 Z M22.395,9.047 C22.395,7.94 23.259,7.04 24.33,7.04 C25.5,7.04 26.076,7.922 26.076,8.948 C26.076,9.281 25.905,9.281 25.716,9.281 L23.034,9.281 C23.178,10.055 23.853,10.505 24.528,10.505 C24.78,10.505 25.266,10.424 25.464,9.965 C25.527,9.794 25.599,9.767 25.761,9.767 C25.815,9.767 26.076,9.767 26.076,10.019 C26.076,10.244 25.653,11.054 24.465,11.054 C23.304,11.054 22.395,10.145 22.395,9.047 Z M23.043,8.741 L25.437,8.741 C25.356,7.814 24.798,7.589 24.33,7.589 C23.7,7.589 23.169,8.084 23.043,8.741 Z M27.282,9.056 C27.282,10.136 28.128,11.054 29.262,11.054 C30.513,11.054 30.819,10.172 30.819,10.019 C30.819,9.767 30.558,9.767 30.504,9.767 C30.36,9.767 30.27,9.785 30.207,9.965 C30.153,10.082 29.982,10.505 29.316,10.505 C28.551,10.505 27.903,9.875 27.903,9.056 C27.903,8.624 28.155,7.589 29.37,7.589 C29.559,7.589 29.91,7.589 29.91,7.67 C29.919,7.985 30.09,8.111 30.306,8.111 C30.522,8.111 30.711,7.958 30.711,7.697 C30.711,7.04 29.775,7.04 29.37,7.04 C27.822,7.04 27.282,8.264 27.282,9.056 Z M31.863,9.056 C31.863,7.931 32.7,7.04 33.708,7.04 C34.716,7.04 35.553,7.931 35.553,9.056 C35.553,10.19 34.698,11.054 33.708,11.054 C32.718,11.054 31.863,10.199 31.863,9.056 Z M32.484,8.993 C32.484,9.83 33.042,10.505 33.708,10.505 C34.374,10.505 34.932,9.83 34.932,8.993 C34.932,8.174 34.356,7.589 33.708,7.589 C33.069,7.589 32.484,8.174 32.484,8.993 Z M36.039,10.73 C36.039,10.451 36.228,10.451 36.552,10.451 L36.552,7.67 C36.228,7.67 36.039,7.67 36.039,7.391 C36.039,7.121 36.273,7.121 36.408,7.121 L36.696,7.121 C36.858,7.121 37.038,7.121 37.056,7.391 C37.272,7.193 37.596,7.067 37.884,7.067 C38.181,7.067 38.433,7.229 38.568,7.535 C38.82,7.184 39.243,7.067 39.513,7.067 C40.314,7.067 40.314,8.093 40.314,8.273 L40.314,10.451 C40.638,10.451 40.827,10.451 40.827,10.73 C40.827,11 40.593,11 40.458,11 L39.738,11 C39.612,11 39.369,11 39.369,10.73 C39.369,10.451 39.594,10.451 39.81,10.451 L39.81,8.354 C39.81,7.769 39.684,7.616 39.477,7.616 C39.108,7.616 38.685,8.039 38.685,8.84 L38.685,10.451 C39.009,10.451 39.198,10.451 39.198,10.73 C39.198,11 38.964,11 38.829,11 L38.109,11 C37.983,11 37.74,11 37.74,10.73 C37.74,10.451 37.965,10.451 38.181,10.451 L38.181,8.354 C38.181,7.769 38.055,7.616 37.848,7.616 C37.479,7.616 37.056,8.039 37.056,8.84 L37.056,10.451 C37.38,10.451 37.569,10.451 37.569,10.73 C37.569,11 37.335,11 37.2,11 L36.408,11 C36.282,11 36.039,11 36.039,10.73 Z M40.764,10.73 C40.764,10.451 40.953,10.451 41.277,10.451 L41.277,7.67 C40.953,7.67 40.764,7.67 40.764,7.391 C40.764,7.121 40.998,7.121 41.133,7.121 L41.421,7.121 C41.583,7.121 41.763,7.121 41.781,7.391 C41.997,7.193 42.321,7.067 42.609,7.067 C42.906,7.067 43.158,7.229 43.293,7.535 C43.545,7.184 43.968,7.067 44.238,7.067 C45.039,7.067 45.039,8.093 45.039,8.273 L45.039,10.451 C45.363,10.451 45.552,10.451 45.552,10.73 C45.552,11 45.318,11 45.183,11 L44.463,11 C44.337,11 44.094,11 44.094,10.73 C44.094,10.451 44.319,10.451 44.535,10.451 L44.535,8.354 C44.535,7.769 44.409,7.616 44.202,7.616 C43.833,7.616 43.41,8.039 43.41,8.84 L43.41,10.451 C43.734,10.451 43.923,10.451 43.923,10.73 C43.923,11 43.689,11 43.554,11 L42.834,11 C42.708,11 42.465,11 42.465,10.73 C42.465,10.451 42.69,10.451 42.906,10.451 L42.906,8.354 C42.906,7.769 42.78,7.616 42.573,7.616 C42.204,7.616 41.781,8.039 41.781,8.84 L41.781,10.451 C42.105,10.451 42.294,10.451 42.294,10.73 C42.294,11 42.06,11 41.925,11 L41.133,11 C41.007,11 40.764,11 40.764,10.73 Z M46.02,9.047 C46.02,7.94 46.884,7.04 47.955,7.04 C49.125,7.04 49.701,7.922 49.701,8.948 C49.701,9.281 49.53,9.281 49.341,9.281 L46.659,9.281 C46.803,10.055 47.478,10.505 48.153,10.505 C48.405,10.505 48.891,10.424 49.089,9.965 C49.152,9.794 49.224,9.767 49.386,9.767 C49.44,9.767 49.701,9.767 49.701,10.019 C49.701,10.244 49.278,11.054 48.09,11.054 C46.929,11.054 46.02,10.145 46.02,9.047 Z M46.668,8.741 L49.062,8.741 C48.981,7.814 48.423,7.589 47.955,7.589 C47.325,7.589 46.794,8.084 46.668,8.741 Z M50.358,10.73 C50.358,11 50.592,11 50.718,11 L52.149,11 C52.275,11 52.509,11 52.509,10.73 C52.509,10.451 52.284,10.451 52.14,10.451 L51.744,10.451 L51.744,8.858 C51.744,7.958 52.41,7.616 52.869,7.616 C53.346,7.616 53.472,7.868 53.472,8.408 L53.472,10.451 L53.121,10.451 C52.977,10.451 52.752,10.451 52.752,10.73 C52.752,11 52.995,11 53.121,11 L54.498,11 C54.624,11 54.858,11 54.858,10.73 C54.858,10.451 54.633,10.451 54.489,10.451 L54.093,10.451 L54.093,8.363 C54.093,7.454 53.634,7.067 52.923,7.067 C52.32,7.067 51.915,7.373 51.744,7.544 C51.744,7.256 51.744,7.121 51.384,7.121 L50.727,7.121 C50.583,7.121 50.358,7.121 50.358,7.4 C50.358,7.67 50.592,7.67 50.718,7.67 L51.123,7.67 L51.123,10.451 L50.727,10.451 C50.583,10.451 50.358,10.451 50.358,10.73 Z M55.299,9.065 C55.299,7.922 56.163,7.067 57.144,7.067 C57.531,7.067 57.9,7.211 58.197,7.472 L58.197,6.05 L57.792,6.05 C57.666,6.05 57.432,6.05 57.432,5.78 C57.432,5.501 57.657,5.501 57.801,5.501 L58.458,5.501 C58.764,5.501 58.818,5.591 58.818,5.87 L58.818,10.451 L59.223,10.451 C59.349,10.451 59.583,10.451 59.583,10.721 C59.583,11 59.358,11 59.214,11 L58.557,11 C58.197,11 58.197,10.874 58.197,10.55 C57.945,10.811 57.567,11.054 57.063,11.054 C56.109,11.054 55.299,10.181 55.299,9.065 Z M55.92,9.065 C55.92,9.866 56.46,10.505 57.099,10.505 C57.792,10.505 58.197,9.758 58.197,9.254 L58.197,8.615 C58.197,8.12 57.756,7.616 57.18,7.616 C56.55,7.616 55.92,8.201 55.92,9.065 Z M3.711,19.721 C3.711,20 3.945,20 4.08,20 L6.645,20 C6.78,20 7.014,20 7.014,19.73 C7.014,19.451 6.78,19.451 6.645,19.451 L5.673,19.451 L5.673,15.05 L6.645,15.05 C6.78,15.05 7.014,15.05 7.014,14.78 C7.014,14.501 6.78,14.501 6.645,14.501 L4.08,14.501 C3.945,14.501 3.711,14.501 3.711,14.771 C3.711,15.05 3.945,15.05 4.08,15.05 L5.052,15.05 L5.052,19.451 L4.08,19.451 C3.945,19.451 3.711,19.451 3.711,19.721 Z M7.833,19.73 C7.833,20 8.067,20 8.193,20 L9.624,20 C9.75,20 9.984,20 9.984,19.73 C9.984,19.451 9.759,19.451 9.615,19.451 L9.219,19.451 L9.219,17.858 C9.219,16.958 9.885,16.616 10.344,16.616 C10.821,16.616 10.947,16.868 10.947,17.408 L10.947,19.451 L10.596,19.451 C10.452,19.451 10.227,19.451 10.227,19.73 C10.227,20 10.47,20 10.596,20 L11.973,20 C12.099,20 12.333,20 12.333,19.73 C12.333,19.451 12.108,19.451 11.964,19.451 L11.568,19.451 L11.568,17.363 C11.568,16.454 11.109,16.067 10.398,16.067 C9.795,16.067 9.39,16.373 9.219,16.544 C9.219,16.256 9.219,16.121 8.859,16.121 L8.202,16.121 C8.058,16.121 7.833,16.121 7.833,16.4 C7.833,16.67 8.067,16.67 8.193,16.67 L8.598,16.67 L8.598,19.451 L8.202,19.451 C8.058,19.451 7.833,19.451 7.833,19.73 Z M12.675,16.4 C12.675,16.67 12.9,16.67 13.035,16.67 L13.827,16.67 L13.827,18.866 C13.827,19.73 14.439,20.054 15.096,20.054 C15.762,20.054 16.491,19.667 16.491,18.866 C16.491,18.704 16.491,18.515 16.176,18.515 C15.879,18.515 15.87,18.704 15.87,18.857 C15.861,19.415 15.348,19.505 15.141,19.505 C14.448,19.505 14.448,19.037 14.448,18.812 L14.448,16.67 L15.924,16.67 C16.059,16.67 16.284,16.67 16.284,16.4 C16.284,16.121 16.068,16.121 15.924,16.121 L14.448,16.121 L14.448,15.383 C14.448,15.212 14.448,15.014 14.142,15.014 C13.827,15.014 13.827,15.203 13.827,15.383 L13.827,16.121 L13.044,16.121 C12.9,16.121 12.675,16.121 12.675,16.4 Z M17.67,18.047 C17.67,16.94 18.534,16.04 19.605,16.04 C20.775,16.04 21.351,16.922 21.351,17.948 C21.351,18.281 21.18,18.281 20.991,18.281 L18.309,18.281 C18.453,19.055 19.128,19.505 19.803,19.505 C20.055,19.505 20.541,19.424 20.739,18.965 C20.802,18.794 20.874,18.767 21.036,18.767 C21.09,18.767 21.351,18.767 21.351,19.019 C21.351,19.244 20.928,20.054 19.74,20.054 C18.579,20.054 17.67,19.145 17.67,18.047 Z M18.318,17.741 L20.712,17.741 C20.631,16.814 20.073,16.589 19.605,16.589 C18.975,16.589 18.444,17.084 18.318,17.741 Z M22.422,19.73 C22.422,20 22.656,20 22.782,20 L25.743,20 C25.878,20 26.103,20 26.103,19.73 C26.103,19.451 25.887,19.451 25.743,19.451 L24.573,19.451 L24.573,14.87 C24.573,14.591 24.519,14.501 24.213,14.501 L22.791,14.501 C22.647,14.501 22.422,14.501 22.422,14.78 C22.422,15.05 22.656,15.05 22.782,15.05 L23.952,15.05 L23.952,19.451 L22.791,19.451 C22.647,19.451 22.422,19.451 22.422,19.73 Z M27.147,19.73 C27.147,20 27.381,20 27.507,20 L30.468,20 C30.603,20 30.828,20 30.828,19.73 C30.828,19.451 30.612,19.451 30.468,19.451 L29.298,19.451 L29.298,14.87 C29.298,14.591 29.244,14.501 28.938,14.501 L27.516,14.501 C27.372,14.501 27.147,14.501 27.147,14.78 C27.147,15.05 27.381,15.05 27.507,15.05 L28.677,15.05 L28.677,19.451 L27.516,19.451 C27.372,19.451 27.147,19.451 27.147,19.73 Z M33.231,14.942 C33.231,15.194 33.429,15.392 33.681,15.392 C33.933,15.392 34.131,15.194 34.131,14.942 C34.131,14.69 33.933,14.492 33.681,14.492 C33.429,14.492 33.231,14.69 33.231,14.942 Z M32.052,19.73 C32.052,20 32.286,20 32.421,20 L35.076,20 C35.211,20 35.445,20 35.445,19.73 C35.445,19.451 35.211,19.451 35.076,19.451 L34.131,19.451 L34.131,16.49 C34.131,16.211 34.077,16.121 33.771,16.121 L32.493,16.121 C32.358,16.121 32.124,16.121 32.124,16.391 C32.124,16.67 32.358,16.67 32.493,16.67 L33.51,16.67 L33.51,19.451 L32.421,19.451 C32.277,19.451 32.052,19.451 32.052,19.73 Z M36.714,19.109 C36.714,19.676 37.308,20.099 38.208,20.099 C39.009,20.099 39.738,19.613 39.738,18.794 L39.738,15.05 L40.008,15.05 C40.152,15.05 40.377,15.05 40.377,14.771 C40.377,14.501 40.143,14.501 40.008,14.501 L38.379,14.501 C38.244,14.501 38.01,14.501 38.01,14.771 C38.01,15.05 38.244,15.05 38.379,15.05 L39.117,15.05 L39.117,18.74 C39.117,19.505 38.379,19.55 38.208,19.55 C38.136,19.55 37.704,19.55 37.443,19.316 C37.479,19.271 37.515,19.226 37.515,19.082 C37.515,18.866 37.344,18.686 37.119,18.686 C36.912,18.686 36.714,18.821 36.714,19.109 Z M46.236,19.721 C46.236,20 46.47,20 46.605,20 L49.17,20 C49.305,20 49.539,20 49.539,19.73 C49.539,19.451 49.305,19.451 49.17,19.451 L48.198,19.451 L48.198,15.05 L49.17,15.05 C49.305,15.05 49.539,15.05 49.539,14.78 C49.539,14.501 49.305,14.501 49.17,14.501 L46.605,14.501 C46.47,14.501 46.236,14.501 46.236,14.771 C46.236,15.05 46.47,15.05 46.605,15.05 L47.577,15.05 L47.577,19.451 L46.605,19.451 C46.47,19.451 46.236,19.451 46.236,19.721 Z M50.421,19.73 C50.421,19.451 50.646,19.451 50.79,19.451 L50.988,19.451 L50.988,15.05 L50.79,15.05 C50.655,15.05 50.421,15.05 50.421,14.78 C50.421,14.501 50.646,14.501 50.79,14.501 L52.644,14.501 C53.841,14.501 54.615,15.851 54.615,17.291 C54.615,18.74 53.823,20 52.644,20 L50.79,20 C50.655,20 50.421,20 50.421,19.73 Z M51.609,19.451 L52.473,19.451 C53.472,19.451 53.994,18.344 53.994,17.291 C53.994,16.247 53.49,15.05 52.473,15.05 L51.609,15.05 L51.609,19.451 Z M55.209,19.73 C55.209,20 55.443,20 55.578,20 L59.133,20 C59.43,20 59.493,19.919 59.493,19.631 L59.493,18.83 C59.493,18.659 59.493,18.461 59.187,18.461 C58.872,18.461 58.872,18.65 58.872,18.83 L58.872,19.451 L56.469,19.451 L56.469,17.426 L57.648,17.426 C57.648,17.795 57.648,17.939 57.963,17.939 C58.269,17.939 58.269,17.741 58.269,17.57 L58.269,16.733 C58.269,16.562 58.269,16.364 57.963,16.364 C57.648,16.364 57.648,16.508 57.648,16.877 L56.469,16.877 L56.469,15.05 L58.674,15.05 L58.674,15.527 C58.674,15.698 58.674,15.896 58.98,15.896 C59.295,15.896 59.295,15.707 59.295,15.527 L59.295,14.87 C59.295,14.591 59.241,14.501 58.935,14.501 L55.578,14.501 C55.443,14.501 55.209,14.501 55.209,14.771 C55.209,15.05 55.443,15.05 55.578,15.05 L55.848,15.05 L55.848,19.451 L55.578,19.451 C55.434,19.451 55.209,19.451 55.209,19.73 Z M59.943,19.73 C59.943,19.613 59.997,19.523 60.096,19.469 C60.15,19.451 60.357,19.451 60.483,19.451 L61.572,14.735 C61.653,14.393 61.797,14.393 62.058,14.393 C62.337,14.393 62.463,14.402 62.544,14.744 L63.633,19.451 C63.768,19.451 63.966,19.451 64.02,19.478 C64.128,19.523 64.173,19.613 64.173,19.73 C64.173,20 63.939,20 63.786,20 L62.868,20 C62.706,20 62.49,20 62.49,19.73 C62.49,19.451 62.67,19.451 62.994,19.451 L62.787,18.515 L61.329,18.515 L61.122,19.451 C61.446,19.451 61.626,19.451 61.626,19.73 C61.626,20 61.41,20 61.248,20 L60.33,20 C60.177,20 59.943,20 59.943,19.73 Z M61.464,17.966 L62.652,17.966 L62.058,15.14 L61.464,17.966 Z" id="We-recommend-Intelli" fill="#FFFFFF"></path>
        </g>
    </g>
</svg>