<?xml version="1.0" encoding="UTF-8"?>
<svg width="111px" height="25px" viewBox="0 0 111 25" version="1.1" xmlns="http://www.w3.org/2000/svg" xmlns:xlink="http://www.w3.org/1999/xlink">
    <!-- Generator: Sketch 43.2 (39069) - http://www.bohemiancoding.com/sketch -->
    <title>Group</title>
    <desc>Created with Sketch.</desc>
    <defs></defs>
    <g id="Page-1" stroke="none" stroke-width="1" fill="none" fill-rule="evenodd">
        <g id="Group">
            <rect id="Rectangle-1" fill="#195BA8" fill-rule="nonzero" x="0" y="0" width="86.2631579" height="25"></rect>
            <rect id="Rectangle-1" fill="#000000" fill-rule="nonzero" x="86" y="0" width="25" height="25"></rect>
            <path d="M104.135418,20.9036274 C103.328727,20.7380781 102.717598,20.0206974 102.522037,18.9783495 C102.436479,18.5246216 102.448701,6.280099 102.534259,5.86929128 C102.705376,5.07833314 103.182056,4.42226708 103.76874,4.15861436 C104.007081,4.05437957 104.202642,4.01759082 104.575431,4.01759082 C105.412678,4.01145936 105.950471,4.3302952 106.335483,5.07220168 C106.744939,5.85089691 106.744939,5.84476545 106.744939,12.4667406 C106.744939,18.3713351 106.732717,18.7944057 106.524933,19.4627347 C106.188812,20.5296085 105.217116,21.1182285 104.135418,20.9036274 L104.135418,20.9036274 Z" id="Shape" fill="#FFFFFF" fill-rule="nonzero" transform="translate(104.604296, 12.482471) scale(-1, 1) rotate(-180.000000) translate(-104.604296, -12.482471) "></path>
            <path d="M91.5889358,20.9053013 C91.069476,20.7581463 90.6477969,20.4515733 90.3727888,20.0162398 C89.6761015,18.9187087 90.0305565,17.5636564 91.173368,16.9382476 L91.5583794,16.7297781 L94.0517864,16.7113837 L96.5451934,16.6929893 L96.5268595,14.228143 L96.5085257,11.7632967 L96.3435208,11.3157002 C96.1051804,10.6657656 95.8362836,10.230432 95.3473802,9.73991536 C94.5651349,8.96122014 93.6728863,8.56880679 92.6339667,8.55041242 C91.6194923,8.53201804 91.1978132,8.3909945 90.6722421,7.89434636 C90.2444517,7.49580156 90.0366678,6.99302197 90.0305565,6.3676132 C90.0305565,5.93227965 90.0550016,5.82804486 90.2322291,5.46628881 C90.4766808,4.96350921 90.9105825,4.5527015 91.3933745,4.3748892 C91.6867165,4.26452295 91.8700553,4.23999712 92.5178522,4.24612857 C93.666775,4.24612857 94.5956914,4.43007233 95.6651674,4.86540588 C97.8713437,5.76673027 99.6680635,7.70427115 100.413641,9.9851737 C100.792541,11.1378879 100.774207,10.9110239 100.810875,16.1656839 L100.847543,20.9911417 L96.3557434,20.9850102 C92.9761991,20.9788788 91.7967198,20.9604844 91.5889358,20.9053013 L91.5889358,20.9053013 Z" id="Shape" fill="#FFFFFF" fill-rule="nonzero" transform="translate(95.431900, 12.618200) scale(-1, 1) rotate(-180.000000) translate(-95.431900, -12.618200) "></path>
            <path d="M91.9250569,15.0132471 C91.46671,14.9028808 91.0633648,14.6760168 90.7516889,14.357181 C90.3727888,13.9647677 90.2627855,13.7808239 90.1100033,13.2964387 C89.5905435,11.5918933 91.0939212,9.88734783 92.8539732,10.1939207 C94.7729188,10.5250195 95.5612754,12.7936591 94.2717929,14.2652091 C93.7095541,14.9090123 92.7623038,15.2094537 91.9250569,15.0132471 L91.9250569,15.0132471 Z" id="Shape" fill="#FFFFFF" fill-rule="nonzero" transform="translate(92.454823, 12.615273) scale(-1, 1) rotate(-180.000000) translate(-92.454823, -12.615273) "></path>
            <text id="We-recommend-Intelli" font-family="Verdana-Bold, Verdana" font-size="9" font-weight="bold" fill="#000000">
                <tspan x="4.10000038" y="11.0999999">We recommend</tspan>
                <tspan x="4.10000038" y="22.0999999">IntelliJ IDEA</tspan>
            </text>
            <text id="We-recommend-Intelli" font-family="Verdana-Bold, Verdana" font-size="9" font-weight="bold" fill="#FFFFFF">
                <tspan x="4" y="11">We recommend</tspan>
                <tspan x="4" y="22">IntelliJ IDEA</tspan>
            </text>
        </g>
    </g>
</svg>