<?xml version="1.0" encoding="UTF-8"?>
<svg width="94px" height="25px" viewBox="0 0 94 25" version="1.1" xmlns="http://www.w3.org/2000/svg" xmlns:xlink="http://www.w3.org/1999/xlink">
    <!-- Generator: Sketch 43.2 (39069) - http://www.bohemiancoding.com/sketch -->
    <title>Group</title>
    <desc>Created with Sketch.</desc>
    <defs></defs>
    <g id="Page-1" stroke="none" stroke-width="1" fill="none" fill-rule="evenodd">
        <g id="Group">
            <rect id="Rectangle-1" fill="#195BA8" fill-rule="nonzero" x="0" y="0" width="69.2631579" height="25"></rect>
            <rect id="Rectangle-1" fill="#000000" fill-rule="nonzero" x="69" y="0" width="24.7368421" height="25"></rect>
            <path d="M87.1354177,20.9036274 C86.3287272,20.7380781 85.717598,20.0206974 85.5220367,18.9783495 C85.4364786,18.5246216 85.4487012,6.280099 85.5342593,5.86929128 C85.7053755,5.07833314 86.1820562,4.42226708 86.7687402,4.15861436 C87.0070806,4.05437957 87.2026419,4.01759082 87.5754307,4.01759082 C88.4126777,4.01145936 88.9504713,4.3302952 89.3354827,5.07220168 C89.7449393,5.85089691 89.7449393,5.84476545 89.7449393,12.4667406 C89.7449393,18.3713351 89.7327167,18.7944057 89.5249328,19.4627347 C89.1888117,20.5296085 88.2171163,21.1182285 87.1354177,20.9036274 L87.1354177,20.9036274 Z" id="Shape" fill="#FFFFFF" fill-rule="nonzero" transform="translate(87.604296, 12.482471) scale(-1, 1) rotate(-180.000000) translate(-87.604296, -12.482471) "></path>
            <path d="M74.5889358,20.9053013 C74.069476,20.7581463 73.6477969,20.4515733 73.3727888,20.0162398 C72.6761015,18.9187087 73.0305565,17.5636564 74.173368,16.9382476 L74.5583794,16.7297781 L77.0517864,16.7113837 L79.5451934,16.6929893 L79.5268595,14.228143 L79.5085257,11.7632967 L79.3435208,11.3157002 C79.1051804,10.6657656 78.8362836,10.230432 78.3473802,9.73991536 C77.5651349,8.96122014 76.6728863,8.56880679 75.6339667,8.55041242 C74.6194923,8.53201804 74.1978132,8.3909945 73.6722421,7.89434636 C73.2444517,7.49580156 73.0366678,6.99302197 73.0305565,6.3676132 C73.0305565,5.93227965 73.0550016,5.82804486 73.2322291,5.46628881 C73.4766808,4.96350921 73.9105825,4.5527015 74.3933745,4.3748892 C74.6867165,4.26452295 74.8700553,4.23999712 75.5178522,4.24612857 C76.666775,4.24612857 77.5956914,4.43007233 78.6651674,4.86540588 C80.8713437,5.76673027 82.6680635,7.70427115 83.4136411,9.9851737 C83.7925412,11.1378879 83.7742073,10.9110239 83.810875,16.1656839 L83.8475428,20.9911417 L79.3557434,20.9850102 C75.9761991,20.9788788 74.7967198,20.9604844 74.5889358,20.9053013 L74.5889358,20.9053013 Z" id="Shape" fill="#FFFFFF" fill-rule="nonzero" transform="translate(78.431900, 12.618200) scale(-1, 1) rotate(-180.000000) translate(-78.431900, -12.618200) "></path>
            <path d="M74.9250569,15.0132471 C74.46671,14.9028808 74.0633648,14.6760168 73.7516889,14.357181 C73.3727888,13.9647677 73.2627855,13.7808239 73.1100033,13.2964387 C72.5905435,11.5918933 74.0939212,9.88734783 75.8539732,10.1939207 C77.7729188,10.5250195 78.5612754,12.7936591 77.2717929,14.2652091 C76.7095541,14.9090123 75.7623038,15.2094537 74.9250569,15.0132471 L74.9250569,15.0132471 Z" id="Shape" fill="#FFFFFF" fill-rule="nonzero" transform="translate(75.454823, 12.615273) scale(-1, 1) rotate(-180.000000) translate(-75.454823, -12.615273) "></path>
            <text id="We-recommend-Intelli" font-family="CMUTypewriter-Regular, CMU Typewriter Text" font-size="9" font-weight="normal" fill="#000000">
                <tspan x="3.10000038" y="11.0999999">We recommend</tspan>
                <tspan x="3.10000038" y="20.0999999">IntelliJ IDEA</tspan>
            </text>
            <text id="We-recommend-Intelli" font-family="CMUTypewriter-Regular, CMU Typewriter Text" font-size="9" font-weight="normal" fill="#FFFFFF">
                <tspan x="3" y="11">We recommend</tspan>
                <tspan x="3" y="20">IntelliJ IDEA</tspan>
            </text>
        </g>
    </g>
</svg>