<?xml version="1.0" encoding="UTF-8"?>
<svg width="90px" height="25px" viewBox="0 0 90 25" version="1.1" xmlns="http://www.w3.org/2000/svg" xmlns:xlink="http://www.w3.org/1999/xlink">
    <!-- Generator: Sketch 43.2 (39069) - http://www.bohemiancoding.com/sketch -->
    <title>Group</title>
    <desc>Created with Sketch.</desc>
    <defs></defs>
    <g id="Page-1" stroke="none" stroke-width="1" fill="none" fill-rule="evenodd">
        <g id="Group">
            <rect id="Rectangle-1" fill="#A70432" fill-rule="nonzero" x="0" y="0" width="64.9999917" height="25"></rect>
            <rect id="Rectangle-1" fill="#000000" fill-rule="nonzero" x="65" y="0" width="24.7368421" height="25"></rect>
            <path d="M72.8697057,19.7412582 C71.3629905,19.3399478 70.1197446,18.3243868 69.494005,16.9894155 C68.9917666,15.9247144 69,15.9902344 69,10.2490387 L69,5.00743345 L70.7290174,5.00743345 L72.4580349,5.00743345 L72.4580349,10.0442885 C72.4580349,14.7699232 72.4745017,15.0975236 72.6144698,15.4087439 C72.8861725,15.9984245 73.528379,16.4324949 74.1294184,16.4324949 C74.5493226,16.4324949 75.2079959,16.0639445 75.4714653,15.6790141 L75.7102343,15.3432238 L75.7349346,10.1753286 L75.7596348,5.00743345 L77.4886523,5.02381346 L79.2176697,5.04019348 L79.2094363,9.86410832 C79.2094363,13.1401116 79.2341366,14.8272533 79.3000039,15.1220936 C79.4070383,15.6298741 79.8187091,16.1294646 80.2468468,16.2850748 L80.5267829,16.3833549 L80.5267829,18.1278266 C80.5267829,20.1343786 80.6255839,19.9705784 79.5964069,19.7166882 C78.8965665,19.536508 78.4437286,19.3235678 77.8673894,18.9140674 L77.4721854,18.6356071 L77.2169496,18.8485473 C76.829979,19.1679576 75.8996029,19.6102181 75.3232638,19.7494482 C74.6645905,19.9050584 73.4625117,19.8968684 72.8697057,19.7412582 L72.8697057,19.7412582 L72.8697057,19.7412582 Z" id="Shape" fill="#FFFFFF" fill-rule="nonzero" transform="translate(74.764669, 12.436149) scale(-1, 1) rotate(-180.000000) translate(-74.764669, -12.436149) "></path>
            <path d="M81.2677904,18.4152341 L81.2677904,16.6789523 L81.6629944,16.4660121 C82.3957684,16.0647017 82.7415719,14.9836207 82.3957684,14.1646199 C82.2393335,13.7878795 81.7041615,13.2719089 81.1525226,12.9606886 C80.6338173,12.6576583 80.2468468,12.272728 80.0821784,11.8714175 C79.9010433,11.4537271 79.9175101,10.6674864 80.1068787,10.1678958 C80.2468468,9.8157255 82.8156727,6.03194172 83.276744,5.5077812 C83.5155131,5.23751093 84.0424517,5.0081907 84.4376557,5.0081907 C84.8493265,5.0081907 85.5491669,5.32760102 85.7797026,5.61425131 C86.1749066,6.12203181 86.2160737,6.88370258 85.8785036,7.54709324 C85.7797026,7.73546343 85.3844986,8.33333403 84.9810612,8.88206456 C84.5858572,9.43079513 84.108319,10.1105658 83.9271839,10.3808361 L83.5813804,10.8804266 L83.7954492,10.9950867 C83.9107171,11.0606067 84.2400537,11.3636371 84.5364567,11.6748574 C85.4503659,12.6658483 85.9608377,13.9598697 85.9608377,15.327601 C85.9608377,17.9074536 84.2976876,19.7092553 81.5806602,20.1023758 L81.2677904,20.1515158 L81.2677904,18.4152341 L81.2677904,18.4152341 L81.2677904,18.4152341 Z" id="Shape" fill="#FFFFFF" fill-rule="nonzero" transform="translate(83.030779, 12.579853) scale(-1, 1) rotate(-180.000000) translate(-83.030779, -12.579853) "></path>
            <path d="M4.19899847,5.9339999 C4.19899847,6.2309999 4.35199847,6.2849999 4.54999847,6.2849999 C4.59499847,6.6809999 4.65799847,7.0769999 4.71199847,7.4819999 L5.15299847,10.7849999 C5.19799847,11.1359999 5.36899847,11.1449999 5.55799847,11.1449999 L5.61199847,11.1449999 C5.70199847,11.1449999 5.91799847,11.1449999 5.99899847,10.9019999 C6.05299847,10.7579999 6.43999847,8.9579999 6.44899847,8.4269999 C6.47599847,8.7599999 6.48499847,8.9309999 6.71899847,10.0649999 C6.90799847,10.9649999 6.89899847,11.1449999 7.29499847,11.1449999 L7.34899847,11.1449999 C7.53799847,11.1449999 7.70899847,11.1269999 7.76299847,10.7849999 L8.21299847,7.3649999 C8.26699847,7.0049999 8.31199847,6.6449999 8.36599847,6.2849999 C8.54599847,6.2849999 8.70799847,6.2399999 8.70799847,5.9339999 C8.70799847,5.6099999 8.47399847,5.6009999 8.38399847,5.6009999 L7.58299847,5.6009999 C7.19599847,5.6009999 7.16899847,5.7449999 7.16899847,5.9699999 C7.16899847,6.2579999 7.35799847,6.2849999 7.54699847,6.2849999 L7.74499847,6.2849999 C7.57399847,7.6619999 7.35799847,8.9939999 7.27699847,10.4699999 C7.26799847,10.3799999 7.26799847,10.2989999 7.26799847,10.2089999 C7.22299847,9.5069999 6.92599847,8.1299999 6.87199847,8.0219999 C6.78199847,7.8059999 6.60199847,7.7969999 6.46699847,7.7969999 L6.42199847,7.7969999 C6.29599847,7.7969999 6.11599847,7.8149999 6.03499847,8.0309999 C6.03499847,8.0309999 5.64799847,9.5069999 5.63899847,10.4699999 L5.62999847,10.2719999 L5.61199847,9.9929999 L5.50399847,8.9669999 L5.16199847,6.2849999 L5.41399847,6.2849999 C5.67499847,6.2849999 5.74699847,6.1499999 5.74699847,5.9339999 C5.74699847,5.8259999 5.72899847,5.6009999 5.42299847,5.6009999 L4.54099847,5.6009999 C4.25299847,5.6009999 4.19899847,5.7629999 4.19899847,5.9339999 Z M9.24799847,9.0839999 C9.24799847,7.8599999 10.0759985,7.0499999 11.2459985,7.0499999 C12.3979985,7.0499999 13.0009985,7.8419999 13.0009985,9.1109999 C13.0009985,9.4349999 12.7939985,9.4529999 12.6409985,9.4529999 L10.0399985,9.4529999 C10.2739985,10.2449999 10.9759985,10.4609999 11.5249985,10.4609999 C11.9119985,10.4609999 12.1009985,10.2539999 12.1909985,10.1009999 C12.2719985,9.9659999 12.2809985,9.7769999 12.6229985,9.7769999 C12.8209985,9.7769999 12.9919985,9.8579999 12.9919985,10.0469999 C12.9919985,10.3169999 12.5509985,11.1359999 11.3719985,11.1359999 C10.1119985,11.1359999 9.24799847,10.3169999 9.24799847,9.0839999 Z M10.0219985,8.8319999 L12.2269985,8.8319999 C12.1729985,8.0489999 11.7859985,7.7249999 11.2459985,7.7249999 C10.5439985,7.7249999 10.1029985,8.1659999 10.0219985,8.8319999 Z M18.4909985,10.7489999 C18.4909985,10.8749999 18.4999985,11.0999999 18.8239985,11.0999999 L21.3439985,11.0999999 C21.4609985,11.0999999 21.6949985,11.0909999 21.7039985,10.7759999 C21.7039985,10.4249999 21.4699985,10.4249999 21.3529985,10.4249999 L20.3359985,10.4249999 L20.3359985,9.5429999 C20.3359985,8.2019999 21.2179985,7.7429999 21.8299985,7.7429999 C21.8569985,7.7429999 21.8839985,7.7429999 21.9199985,7.7519999 C21.9919985,7.9589999 22.1539985,8.0219999 22.2889985,8.0219999 C22.4959985,8.0219999 22.6579985,7.8599999 22.6579985,7.6439999 C22.6579985,7.4099999 22.4869985,7.0679999 21.8119985,7.0679999 C21.1459985,7.0679999 20.6329985,7.4189999 20.3359985,7.8149999 L20.3359985,7.4459999 C20.3359985,7.3199999 20.3179985,7.1039999 20.0029985,7.1039999 L18.8419985,7.1039999 C18.6979985,7.1039999 18.4909985,7.1309999 18.4909985,7.4099999 C18.4909985,7.5629999 18.4909985,7.7789999 18.8239985,7.7789999 L19.5799985,7.7789999 L19.5799985,10.4249999 L18.8239985,10.4249999 C18.5539985,10.4249999 18.4909985,10.5779999 18.4909985,10.7489999 Z M23.4229985,9.0839999 C23.4229985,7.8599999 24.2509985,7.0499999 25.4209985,7.0499999 C26.5729985,7.0499999 27.1759985,7.8419999 27.1759985,9.1109999 C27.1759985,9.4349999 26.9689985,9.4529999 26.8159985,9.4529999 L24.2149985,9.4529999 C24.4489985,10.2449999 25.1509985,10.4609999 25.6999985,10.4609999 C26.0869985,10.4609999 26.2759985,10.2539999 26.3659985,10.1009999 C26.4469985,9.9659999 26.4559985,9.7769999 26.7979985,9.7769999 C26.9959985,9.7769999 27.1669985,9.8579999 27.1669985,10.0469999 C27.1669985,10.3169999 26.7259985,11.1359999 25.5469985,11.1359999 C24.2869985,11.1359999 23.4229985,10.3169999 23.4229985,9.0839999 Z M24.1969985,8.8319999 L26.4019985,8.8319999 C26.3479985,8.0489999 25.9609985,7.7249999 25.4209985,7.7249999 C24.7189985,7.7249999 24.2779985,8.1659999 24.1969985,8.8319999 Z M28.3099985,9.1019999 C28.3099985,10.3169999 29.1199985,11.1359999 30.3349985,11.1359999 C31.5409985,11.1359999 31.9099985,10.2629999 31.9099985,10.0379999 C31.9099985,9.8039999 31.7209985,9.7769999 31.5049985,9.7769999 L31.4959985,9.7769999 C31.4059985,9.7769999 31.2799985,9.7769999 31.1989985,9.9119999 C31.1449985,10.0109999 31.0459985,10.4609999 30.5149985,10.4609999 C29.7229985,10.4609999 29.0659985,9.9929999 29.0659985,9.0929999 C29.0659985,8.5259999 29.3089985,7.7249999 30.4249985,7.7249999 C30.6499985,7.7249999 30.8749985,7.7249999 31.0639985,7.7699999 C31.1359985,7.9949999 31.3069985,8.0579999 31.4329985,8.0579999 C31.6399985,8.0579999 31.8109985,7.8959999 31.8109985,7.6799999 C31.8109985,7.0589999 30.9109985,7.0499999 30.4429985,7.0499999 L30.3619985,7.0499999 C29.0659985,7.0499999 28.3099985,7.9229999 28.3099985,9.1019999 Z M32.9179985,9.1019999 C32.9179985,7.8149999 33.7099985,7.0499999 34.8079985,7.0499999 C35.9239985,7.0499999 36.6979985,7.8419999 36.6979985,9.1019999 C36.6979985,10.3619999 35.9239985,11.1359999 34.7989985,11.1359999 C33.6829985,11.1359999 32.9179985,10.3439999 32.9179985,9.1019999 Z M33.6739985,9.0209999 C33.6739985,10.1369999 34.3399985,10.4609999 34.8079985,10.4609999 C35.4829985,10.4609999 35.9419985,9.8939999 35.9419985,9.0299999 C35.9419985,8.2199999 35.4739985,7.7249999 34.8079985,7.7249999 C34.2679985,7.7249999 33.6739985,8.0849999 33.6739985,9.0209999 Z M37.0759985,10.7669999 L37.0759985,10.7579999 C37.0759985,10.5779999 37.1389985,10.4249999 37.4089985,10.4249999 L37.5889985,10.4249999 L37.5889985,7.7789999 L37.4269985,7.7789999 C37.2289985,7.7789999 37.0759985,7.7339999 37.0759985,7.4459999 L37.0759985,7.4099999 C37.0759985,7.2749999 37.1389985,7.1039999 37.4089985,7.1039999 L37.7779985,7.1039999 C37.7959985,7.1039999 37.8229985,7.0949999 37.8589985,7.0949999 C37.9759985,7.0949999 38.1829985,7.1309999 38.2009985,7.4099999 C38.3899985,7.2209999 38.6509985,7.0679999 39.0109985,7.0679999 C39.4879985,7.0679999 39.6589985,7.4279999 39.7219985,7.5539999 C40.0639985,7.0949999 40.5139985,7.0679999 40.6579985,7.0679999 C40.8919985,7.0679999 41.2159985,7.1669999 41.3779985,7.5809999 C41.4769985,7.8509999 41.4859985,8.1479999 41.4859985,8.4269999 L41.4859985,10.4249999 L41.6389985,10.4249999 C41.8369985,10.4249999 41.9989985,10.4699999 41.9989985,10.7489999 C41.9989985,10.9559999 41.9359985,11.0999999 41.6659985,11.0999999 L40.8559985,11.0999999 C40.5229985,11.0999999 40.5139985,10.8839999 40.5139985,10.7579999 L40.5139985,10.7309999 C40.5139985,10.4339999 40.7569985,10.4249999 40.8559985,10.4249999 L40.8739985,10.4249999 L40.8739985,8.4809999 C40.8739985,8.1389999 40.8739985,7.7429999 40.5499985,7.7429999 C40.1269985,7.7429999 39.8389985,8.2649999 39.8389985,9.0119999 L39.8389985,10.4249999 L39.9919985,10.4249999 C40.1989985,10.4249999 40.3609985,10.4789999 40.3609985,10.7669999 C40.3609985,10.9289999 40.2889985,11.0999999 40.0279985,11.0999999 L39.2089985,11.0999999 C38.8759985,11.0999999 38.8669985,10.8839999 38.8669985,10.7579999 L38.8669985,10.7309999 C38.8669985,10.4339999 39.1099985,10.4249999 39.2089985,10.4249999 L39.2359985,10.4249999 L39.2359985,8.4809999 C39.2269985,8.1389999 39.2269985,7.7429999 38.9029985,7.7429999 C38.4799985,7.7429999 38.1919985,8.2649999 38.2009985,9.0119999 L38.2009985,10.4249999 L38.3719985,10.4249999 C38.4709985,10.4249999 38.7049985,10.4249999 38.7049985,10.7579999 C38.7049985,10.9469999 38.6419985,11.0999999 38.3719985,11.0999999 L37.4179985,11.0999999 C37.2289985,11.0999999 37.0759985,11.0369999 37.0759985,10.7669999 Z M41.8009985,10.7669999 L41.8009985,10.7579999 C41.8009985,10.5779999 41.8639985,10.4249999 42.1339985,10.4249999 L42.3139985,10.4249999 L42.3139985,7.7789999 L42.1519985,7.7789999 C41.9539985,7.7789999 41.8009985,7.7339999 41.8009985,7.4459999 L41.8009985,7.4099999 C41.8009985,7.2749999 41.8639985,7.1039999 42.1339985,7.1039999 L42.5029985,7.1039999 C42.5209985,7.1039999 42.5479985,7.0949999 42.5839985,7.0949999 C42.7009985,7.0949999 42.9079985,7.1309999 42.9259985,7.4099999 C43.1149985,7.2209999 43.3759985,7.0679999 43.7359985,7.0679999 C44.2129985,7.0679999 44.3839985,7.4279999 44.4469985,7.5539999 C44.7889985,7.0949999 45.2389985,7.0679999 45.3829985,7.0679999 C45.6169985,7.0679999 45.9409985,7.1669999 46.1029985,7.5809999 C46.2019985,7.8509999 46.2109985,8.1479999 46.2109985,8.4269999 L46.2109985,10.4249999 L46.3639985,10.4249999 C46.5619985,10.4249999 46.7239985,10.4699999 46.7239985,10.7489999 C46.7239985,10.9559999 46.6609985,11.0999999 46.3909985,11.0999999 L45.5809985,11.0999999 C45.2479985,11.0999999 45.2389985,10.8839999 45.2389985,10.7579999 L45.2389985,10.7309999 C45.2389985,10.4339999 45.4819985,10.4249999 45.5809985,10.4249999 L45.5989985,10.4249999 L45.5989985,8.4809999 C45.5989985,8.1389999 45.5989985,7.7429999 45.2749985,7.7429999 C44.8519985,7.7429999 44.5639985,8.2649999 44.5639985,9.0119999 L44.5639985,10.4249999 L44.7169985,10.4249999 C44.9239985,10.4249999 45.0859985,10.4789999 45.0859985,10.7669999 C45.0859985,10.9289999 45.0139985,11.0999999 44.7529985,11.0999999 L43.9339985,11.0999999 C43.6009985,11.0999999 43.5919985,10.8839999 43.5919985,10.7579999 L43.5919985,10.7309999 C43.5919985,10.4339999 43.8349985,10.4249999 43.9339985,10.4249999 L43.9609985,10.4249999 L43.9609985,8.4809999 C43.9519985,8.1389999 43.9519985,7.7429999 43.6279985,7.7429999 C43.2049985,7.7429999 42.9169985,8.2649999 42.9259985,9.0119999 L42.9259985,10.4249999 L43.0969985,10.4249999 C43.1959985,10.4249999 43.4299985,10.4249999 43.4299985,10.7579999 C43.4299985,10.9469999 43.3669985,11.0999999 43.0969985,11.0999999 L42.1429985,11.0999999 C41.9539985,11.0999999 41.8009985,11.0369999 41.8009985,10.7669999 Z M47.0479985,9.0839999 C47.0479985,7.8599999 47.8759985,7.0499999 49.0459985,7.0499999 C50.1979985,7.0499999 50.8009985,7.8419999 50.8009985,9.1109999 C50.8009985,9.4349999 50.5939985,9.4529999 50.4409985,9.4529999 L47.8399985,9.4529999 C48.0739985,10.2449999 48.7759985,10.4609999 49.3249985,10.4609999 C49.7119985,10.4609999 49.9009985,10.2539999 49.9909985,10.1009999 C50.0719985,9.9659999 50.0809985,9.7769999 50.4229985,9.7769999 C50.6209985,9.7769999 50.7919985,9.8579999 50.7919985,10.0469999 C50.7919985,10.3169999 50.3509985,11.1359999 49.1719985,11.1359999 C47.9119985,11.1359999 47.0479985,10.3169999 47.0479985,9.0839999 Z M47.8219985,8.8319999 L50.0269985,8.8319999 C49.9729985,8.0489999 49.5859985,7.7249999 49.0459985,7.7249999 C48.3439985,7.7249999 47.9029985,8.1659999 47.8219985,8.8319999 Z M51.3859985,10.7579999 C51.3859985,11.0909999 51.6199985,11.0999999 51.7369985,11.0999999 L53.3209985,11.0999999 C53.4739985,11.0999999 53.6719985,11.0639999 53.6719985,10.7669999 C53.6719985,10.4519999 53.4739985,10.4249999 53.2849985,10.4249999 L52.9069985,10.4249999 L52.9069985,9.0209999 C52.9069985,8.0399999 53.5369985,7.7429999 53.9509985,7.7429999 C54.4189985,7.7429999 54.5179985,7.9769999 54.5179985,8.4989999 L54.5179985,10.4249999 L54.2659985,10.4249999 C54.1399985,10.4249999 53.9059985,10.4249999 53.9059985,10.7669999 C53.9059985,11.0999999 54.1399985,11.0999999 54.2659985,11.0999999 L55.6969985,11.0999999 C55.7959985,11.0999999 56.0299985,11.0909999 56.0299985,10.7579999 C56.0299985,10.4249999 55.8139985,10.4249999 55.6699985,10.4249999 L55.2649985,10.4249999 L55.2649985,8.5079999 C55.2649985,7.9229999 55.1929985,7.0679999 54.0949985,7.0679999 C53.5369985,7.0679999 53.1679985,7.3109999 52.9069985,7.5719999 L52.9069985,7.4279999 C52.9069985,7.1309999 52.6909985,7.1039999 52.5649985,7.1039999 L51.7099985,7.1039999 C51.5479985,7.1039999 51.3859985,7.1669999 51.3859985,7.4369999 C51.3859985,7.7789999 51.6289985,7.7789999 51.7459985,7.7789999 L52.1509985,7.7789999 L52.1509985,10.4249999 L51.7369985,10.4249999 C51.6019985,10.4249999 51.3859985,10.4339999 51.3859985,10.7579999 Z M56.3539985,9.1199999 C56.3539985,7.5629999 57.3889985,7.0679999 58.1449985,7.0679999 C58.6219985,7.0679999 58.9819985,7.2659999 59.2339985,7.4909999 L59.2339985,6.2849999 L58.8379985,6.2849999 C58.6579985,6.2849999 58.4689985,6.2759999 58.4689985,5.9339999 C58.4689985,5.6639999 58.6309985,5.6099999 58.7839985,5.6009999 L59.6569985,5.6009999 C59.9719985,5.6009999 59.9899985,5.8079999 59.9899985,5.9609999 L59.9899985,10.4249999 L60.3949985,10.4249999 C60.5929985,10.4249999 60.7549985,10.4699999 60.7549985,10.7489999 C60.7549985,10.9469999 60.6919985,11.0999999 60.4219985,11.0999999 L59.5399985,11.0999999 C59.3959985,11.0999999 59.2339985,11.0369999 59.2339985,10.7669999 L59.2339985,10.6139999 C58.9639985,10.9019999 58.5949985,11.1359999 58.0729985,11.1359999 C57.0469985,11.1359999 56.3539985,10.3079999 56.3539985,9.1199999 Z M57.1099985,9.1019999 C57.1099985,10.1729999 57.7489985,10.4609999 58.1899985,10.4609999 C58.9099985,10.4609999 59.2429985,9.6599999 59.2339985,9.3809999 L59.2339985,8.5889999 C59.2339985,8.2379999 58.8469985,7.7429999 58.2799985,7.7429999 C57.5779985,7.7429999 57.1099985,8.2559999 57.1099985,9.1019999 Z M4.23499847,20.7489999 C4.23499847,20.4159999 4.48699847,20.4249999 4.59499847,20.4249999 L4.81999847,20.4249999 L4.81999847,16.2849999 L4.59499847,16.2849999 C4.45099847,16.2849999 4.23499847,16.2669999 4.23499847,15.9429999 C4.23499847,15.6729999 4.38799847,15.6009999 4.58599847,15.6009999 L6.23299847,15.6009999 C7.62799847,15.6009999 7.99699847,16.5189999 7.99699847,17.1489999 C7.99699847,17.6799999 7.76299847,18.1479999 7.33999847,18.4089999 C7.46599847,18.5349999 7.75399847,18.8049999 7.75399847,19.3989999 L7.75399847,19.9029999 C7.75399847,20.3979999 7.85299847,20.4609999 7.98799847,20.4969999 C8.09599847,20.2359999 7.95199847,19.9209999 8.42899847,19.9209999 C8.79799847,19.9209999 8.79799847,20.1909999 8.79799847,20.2449999 C8.79799847,20.6769999 8.50999847,21.1719999 7.98799847,21.1719999 C7.59199847,21.1719999 6.99799847,20.9559999 6.99799847,19.9209999 L6.99799847,19.2549999 C6.97099847,19.1199999 6.83599847,18.6879999 6.20599847,18.6879999 L5.57599847,18.6879999 L5.57599847,20.4249999 L5.80999847,20.4249999 C6.00799847,20.4249999 6.16999847,20.4699999 6.16999847,20.7579999 C6.16999847,21.0909999 5.93599847,21.0999999 5.80999847,21.0999999 L4.58599847,21.0999999 C4.27099847,21.0999999 4.23499847,20.9199999 4.23499847,20.7489999 Z M5.57599847,18.0129999 L6.11599847,18.0129999 C7.04299847,18.0129999 7.24099847,17.4909999 7.24099847,17.1489999 C7.24099847,16.7979999 7.05199847,16.2759999 6.11599847,16.2759999 C6.08899847,16.2759999 6.06199847,16.2849999 6.03499847,16.2849999 L5.57599847,16.2849999 L5.57599847,18.0129999 Z M8.86099847,17.4459999 C8.86099847,17.7609999 9.06799847,17.7789999 9.23899847,17.7789999 L9.62599847,17.7789999 L9.62599847,20.0829999 C9.62599847,20.9559999 10.1659985,21.1359999 10.8499985,21.1359999 C11.2909985,21.1359999 11.6419985,21.0279999 11.9929985,20.8029999 C12.0109985,21.0639999 12.1639985,21.0999999 12.3349985,21.0999999 L13.1539985,21.0999999 C13.2979985,21.0999999 13.5049985,21.0909999 13.5049985,20.7399999 C13.5049985,20.4789999 13.3429985,20.4249999 13.1629985,20.4249999 L12.7399985,20.4249999 L12.7399985,17.4459999 C12.7399985,17.2929999 12.7129985,17.1039999 12.4069985,17.1039999 L11.5429985,17.1039999 C11.3809985,17.1039999 11.2189985,17.1849999 11.2189985,17.4549999 C11.2189985,17.7789999 11.4439985,17.7789999 11.6329985,17.7789999 L11.9929985,17.7789999 L11.9929985,19.6869999 C11.9929985,19.7589999 11.9929985,19.8309999 11.9839985,19.8939999 C11.9389985,20.1549999 11.6419985,20.4609999 11.0209985,20.4609999 C10.5259985,20.4609999 10.3819985,20.3709999 10.3819985,20.0649999 L10.3819985,17.4909999 C10.3819985,17.3559999 10.3999985,17.1039999 10.0489985,17.1039999 L9.16699847,17.1039999 C9.02299847,17.1039999 8.86099847,17.1669999 8.86099847,17.4459999 Z M13.5859985,15.9609999 C13.5859985,15.6729999 13.7119985,15.6009999 13.9459985,15.6009999 L14.7289985,15.6009999 C15.1069985,15.6009999 15.1069985,15.7989999 15.1069985,15.9699999 L15.1069985,17.5269999 C15.4039985,17.2749999 15.7729985,17.0679999 16.2859985,17.0679999 C17.1229985,17.0679999 17.9869985,17.6799999 17.9869985,19.0929999 C17.9869985,20.4519999 17.1229985,21.1359999 16.1779985,21.1359999 C15.6919985,21.1359999 15.3769985,20.9379999 15.1069985,20.6679999 L15.1069985,20.7309999 C15.1069985,20.9019999 15.0889985,21.0999999 14.7829985,21.0999999 L14.7469985,21.0999999 C14.5309985,21.0999999 14.3509985,21.0639999 14.3509985,20.7669999 L14.3509985,16.2849999 L13.9099985,16.2849999 C13.6579985,16.2849999 13.5859985,16.1139999 13.5859985,15.9609999 Z M15.1069985,19.4169999 C15.1069985,19.7679999 15.4489985,20.4609999 16.0609985,20.4609999 C16.7629985,20.4609999 17.2309985,19.9479999 17.2309985,19.1019999 C17.2309985,18.0219999 16.5829985,17.7429999 16.1509985,17.7429999 C15.5569985,17.7429999 15.1069985,18.2379999 15.1069985,18.5979999 L15.1069985,19.4169999 Z M18.5089985,17.4459999 C18.5089985,17.7789999 18.7339985,17.7789999 18.8689985,17.7789999 L19.1839985,17.7789999 C19.2199985,17.8869999 19.2649985,17.9949999 19.3099985,18.1029999 L20.3809985,20.9649999 C20.4079985,21.0369999 20.4169985,21.0819999 20.4169985,21.1089999 C20.4169985,21.1539999 20.3989985,21.1899999 20.3809985,21.2619999 C20.2099985,21.7929999 20.0839985,22.4229999 19.3909985,22.4589999 C19.3909985,22.4319999 19.3999985,22.3959999 19.3999985,22.3689999 C19.3999985,22.1889999 19.2199985,22.0449999 19.0309985,22.0449999 C18.9049985,22.0449999 18.6529985,22.1259999 18.6529985,22.4319999 C18.6529985,22.8009999 18.9679985,23.1339999 19.4089985,23.1339999 C20.3359985,23.1339999 20.7409985,22.1619999 20.9209985,21.5949999 L22.1179985,17.7789999 L22.4239985,17.7789999 C22.5499985,17.7789999 22.7839985,17.7789999 22.7839985,17.4459999 C22.7839985,17.2569999 22.7119985,17.1039999 22.4509985,17.1039999 L21.2539985,17.1039999 C21.1369985,17.1039999 20.8939985,17.1039999 20.8939985,17.4279999 C20.8939985,17.7699999 21.0919985,17.7789999 21.2539985,17.7789999 L21.4879985,17.7789999 C21.2989985,18.4089999 20.7589985,20.0469999 20.7319985,20.4699999 L20.6959985,20.2809999 L20.5789985,19.8759999 L20.4169985,19.3719999 L19.8409985,17.7789999 L20.0389985,17.7789999 C20.1829985,17.7789999 20.3989985,17.7699999 20.3989985,17.4459999 C20.3989985,17.1039999 20.1559985,17.1039999 20.0389985,17.1039999 L18.8509985,17.1039999 C18.6799985,17.1039999 18.5089985,17.1399999 18.5089985,17.4459999 Z M23.1079985,20.7759999 C23.1079985,21.0999999 23.3599985,21.0999999 23.4499985,21.0999999 L24.3229985,21.0999999 C24.4669985,21.0999999 24.6739985,21.0729999 24.6739985,20.7669999 C24.6739985,20.6409999 24.6649985,20.4249999 24.3409985,20.4249999 L24.1969985,20.4249999 L24.1969985,16.2309999 C24.2419985,16.6989999 24.5299985,17.6259999 24.8179985,18.5349999 C24.9529985,18.9759999 24.9979985,19.2639999 25.3579985,19.2639999 C25.5379985,19.2639999 25.6549985,19.1739999 25.7179985,19.0479999 C25.7539985,18.9849999 26.4739985,16.7709999 26.5099985,16.2309999 L26.5189985,16.4649999 L26.5189985,20.4249999 L26.3659985,20.4249999 C26.0869985,20.4249999 26.0419985,20.5779999 26.0419985,20.7849999 C26.0419985,20.8839999 26.0509985,21.0999999 26.3749985,21.0999999 L27.2569985,21.0999999 C27.4009985,21.0999999 27.6079985,21.0729999 27.6079985,20.7669999 C27.6079985,20.6409999 27.5989985,20.4249999 27.2749985,20.4249999 L27.1309985,20.4249999 L27.1309985,16.2849999 L27.2749985,16.2849999 C27.5269985,16.2849999 27.6079985,16.1319999 27.6079985,15.9699999 C27.6079985,15.7269999 27.5359985,15.6009999 27.2659985,15.6009999 L26.5369985,15.6009999 C26.1589985,15.6009999 26.1049985,15.9429999 26.0689985,16.0509999 C25.7899985,16.9419999 25.3849985,18.2109999 25.3579985,18.6339999 C25.2949985,18.0669999 24.6739985,16.1319999 24.6469985,16.0599999 C24.5929985,15.9069999 24.5479985,15.6009999 24.1609985,15.6009999 L23.4499985,15.6009999 C23.2969985,15.6009999 23.1079985,15.6369999 23.1079985,15.9249999 C23.1079985,16.0509999 23.1169985,16.2849999 23.4409985,16.2849999 L23.5849985,16.2849999 L23.5849985,20.4249999 L23.4319985,20.4249999 C23.1619985,20.4249999 23.1079985,20.5779999 23.1079985,20.7759999 Z M29.4979985,16.0149999 C29.4979985,16.1769999 29.6149985,16.4199999 30.0289985,16.4199999 C30.4609985,16.4199999 30.5689985,16.1769999 30.5689985,16.0149999 C30.5689985,15.7629999 30.3619985,15.6009999 30.0379985,15.6009999 C29.6059985,15.6009999 29.4979985,15.8439999 29.4979985,16.0149999 Z M28.3639985,20.7579999 C28.3639985,20.9379999 28.4269985,21.0999999 28.6879985,21.0999999 L31.5679985,21.0999999 C31.8379985,21.0999999 31.8829985,20.9289999 31.8829985,20.7309999 C31.8829985,20.4879999 31.7209985,20.4249999 31.5319985,20.4249999 L30.5689985,20.4249999 L30.5689985,17.4549999 C30.5689985,17.3019999 30.5509985,17.1039999 30.2449985,17.1039999 L28.7869985,17.1039999 C28.6699985,17.1039999 28.4359985,17.1039999 28.4359985,17.4369999 C28.4359985,17.7789999 28.6519985,17.7789999 28.8229985,17.7789999 L29.8219985,17.7789999 L29.8219985,20.4249999 L28.7149985,20.4249999 C28.5079985,20.4249999 28.3639985,20.4699999 28.3639985,20.7579999 Z M32.4859985,20.7579999 C32.4859985,21.0909999 32.7199985,21.0999999 32.8369985,21.0999999 L34.4209985,21.0999999 C34.5739985,21.0999999 34.7719985,21.0639999 34.7719985,20.7669999 C34.7719985,20.4519999 34.5739985,20.4249999 34.3849985,20.4249999 L34.0069985,20.4249999 L34.0069985,19.0209999 C34.0069985,18.0399999 34.6369985,17.7429999 35.0509985,17.7429999 C35.5189985,17.7429999 35.6179985,17.9769999 35.6179985,18.4989999 L35.6179985,20.4249999 L35.3659985,20.4249999 C35.2399985,20.4249999 35.0059985,20.4249999 35.0059985,20.7669999 C35.0059985,21.0999999 35.2399985,21.0999999 35.3659985,21.0999999 L36.7969985,21.0999999 C36.8959985,21.0999999 37.1299985,21.0909999 37.1299985,20.7579999 C37.1299985,20.4249999 36.9139985,20.4249999 36.7699985,20.4249999 L36.3649985,20.4249999 L36.3649985,18.5079999 C36.3649985,17.9229999 36.2929985,17.0679999 35.1949985,17.0679999 C34.6369985,17.0679999 34.2679985,17.3109999 34.0069985,17.5719999 L34.0069985,17.4279999 C34.0069985,17.1309999 33.7909985,17.1039999 33.6649985,17.1039999 L32.8099985,17.1039999 C32.6479985,17.1039999 32.4859985,17.1669999 32.4859985,17.4369999 C32.4859985,17.7789999 32.7289985,17.7789999 32.8459985,17.7789999 L33.2509985,17.7789999 L33.2509985,20.4249999 L32.8369985,20.4249999 C32.7019985,20.4249999 32.4859985,20.4339999 32.4859985,20.7579999 Z M37.5979985,19.0839999 C37.5979985,17.8599999 38.4259985,17.0499999 39.5959985,17.0499999 C40.7479985,17.0499999 41.3509985,17.8419999 41.3509985,19.1109999 C41.3509985,19.4349999 41.1439985,19.4529999 40.9909985,19.4529999 L38.3899985,19.4529999 C38.6239985,20.2449999 39.3259985,20.4609999 39.8749985,20.4609999 C40.2619985,20.4609999 40.4509985,20.2539999 40.5409985,20.1009999 C40.6219985,19.9659999 40.6309985,19.7769999 40.9729985,19.7769999 C41.1709985,19.7769999 41.3419985,19.8579999 41.3419985,20.0469999 C41.3419985,20.3169999 40.9009985,21.1359999 39.7219985,21.1359999 C38.4619985,21.1359999 37.5979985,20.3169999 37.5979985,19.0839999 Z M38.3719985,18.8319999 L40.5769985,18.8319999 C40.5229985,18.0489999 40.1359985,17.7249999 39.5959985,17.7249999 C38.8939985,17.7249999 38.4529985,18.1659999 38.3719985,18.8319999 Z" id="We-recommend-RubyMin" fill="#000000"></path>
            <path d="M4.099,5.834 C4.099,6.131 4.252,6.185 4.45,6.185 C4.495,6.581 4.558,6.977 4.612,7.382 L5.053,10.685 C5.098,11.036 5.269,11.045 5.458,11.045 L5.512,11.045 C5.602,11.045 5.818,11.045 5.899,10.802 C5.953,10.658 6.34,8.858 6.349,8.327 C6.376,8.66 6.385,8.831 6.619,9.965 C6.808,10.865 6.799,11.045 7.195,11.045 L7.249,11.045 C7.438,11.045 7.609,11.027 7.663,10.685 L8.113,7.265 C8.167,6.905 8.212,6.545 8.266,6.185 C8.446,6.185 8.608,6.14 8.608,5.834 C8.608,5.51 8.374,5.501 8.284,5.501 L7.483,5.501 C7.096,5.501 7.069,5.645 7.069,5.87 C7.069,6.158 7.258,6.185 7.447,6.185 L7.645,6.185 C7.474,7.562 7.258,8.894 7.177,10.37 C7.168,10.28 7.168,10.199 7.168,10.109 C7.123,9.407 6.826,8.03 6.772,7.922 C6.682,7.706 6.502,7.697 6.367,7.697 L6.322,7.697 C6.196,7.697 6.016,7.715 5.935,7.931 C5.935,7.931 5.548,9.407 5.539,10.37 L5.53,10.172 L5.512,9.893 L5.404,8.867 L5.062,6.185 L5.314,6.185 C5.575,6.185 5.647,6.05 5.647,5.834 C5.647,5.726 5.629,5.501 5.323,5.501 L4.441,5.501 C4.153,5.501 4.099,5.663 4.099,5.834 Z M9.148,8.984 C9.148,7.76 9.976,6.95 11.146,6.95 C12.298,6.95 12.901,7.742 12.901,9.011 C12.901,9.335 12.694,9.353 12.541,9.353 L9.94,9.353 C10.174,10.145 10.876,10.361 11.425,10.361 C11.812,10.361 12.001,10.154 12.091,10.001 C12.172,9.866 12.181,9.677 12.523,9.677 C12.721,9.677 12.892,9.758 12.892,9.947 C12.892,10.217 12.451,11.036 11.272,11.036 C10.012,11.036 9.148,10.217 9.148,8.984 Z M9.922,8.732 L12.127,8.732 C12.073,7.949 11.686,7.625 11.146,7.625 C10.444,7.625 10.003,8.066 9.922,8.732 Z M18.391,10.649 C18.391,10.775 18.4,11 18.724,11 L21.244,11 C21.361,11 21.595,10.991 21.604,10.676 C21.604,10.325 21.37,10.325 21.253,10.325 L20.236,10.325 L20.236,9.443 C20.236,8.102 21.118,7.643 21.73,7.643 C21.757,7.643 21.784,7.643 21.82,7.652 C21.892,7.859 22.054,7.922 22.189,7.922 C22.396,7.922 22.558,7.76 22.558,7.544 C22.558,7.31 22.387,6.968 21.712,6.968 C21.046,6.968 20.533,7.319 20.236,7.715 L20.236,7.346 C20.236,7.22 20.218,7.004 19.903,7.004 L18.742,7.004 C18.598,7.004 18.391,7.031 18.391,7.31 C18.391,7.463 18.391,7.679 18.724,7.679 L19.48,7.679 L19.48,10.325 L18.724,10.325 C18.454,10.325 18.391,10.478 18.391,10.649 Z M23.323,8.984 C23.323,7.76 24.151,6.95 25.321,6.95 C26.473,6.95 27.076,7.742 27.076,9.011 C27.076,9.335 26.869,9.353 26.716,9.353 L24.115,9.353 C24.349,10.145 25.051,10.361 25.6,10.361 C25.987,10.361 26.176,10.154 26.266,10.001 C26.347,9.866 26.356,9.677 26.698,9.677 C26.896,9.677 27.067,9.758 27.067,9.947 C27.067,10.217 26.626,11.036 25.447,11.036 C24.187,11.036 23.323,10.217 23.323,8.984 Z M24.097,8.732 L26.302,8.732 C26.248,7.949 25.861,7.625 25.321,7.625 C24.619,7.625 24.178,8.066 24.097,8.732 Z M28.21,9.002 C28.21,10.217 29.02,11.036 30.235,11.036 C31.441,11.036 31.81,10.163 31.81,9.938 C31.81,9.704 31.621,9.677 31.405,9.677 L31.396,9.677 C31.306,9.677 31.18,9.677 31.099,9.812 C31.045,9.911 30.946,10.361 30.415,10.361 C29.623,10.361 28.966,9.893 28.966,8.993 C28.966,8.426 29.209,7.625 30.325,7.625 C30.55,7.625 30.775,7.625 30.964,7.67 C31.036,7.895 31.207,7.958 31.333,7.958 C31.54,7.958 31.711,7.796 31.711,7.58 C31.711,6.959 30.811,6.95 30.343,6.95 L30.262,6.95 C28.966,6.95 28.21,7.823 28.21,9.002 Z M32.818,9.002 C32.818,7.715 33.61,6.95 34.708,6.95 C35.824,6.95 36.598,7.742 36.598,9.002 C36.598,10.262 35.824,11.036 34.699,11.036 C33.583,11.036 32.818,10.244 32.818,9.002 Z M33.574,8.921 C33.574,10.037 34.24,10.361 34.708,10.361 C35.383,10.361 35.842,9.794 35.842,8.93 C35.842,8.12 35.374,7.625 34.708,7.625 C34.168,7.625 33.574,7.985 33.574,8.921 Z M36.976,10.667 L36.976,10.658 C36.976,10.478 37.039,10.325 37.309,10.325 L37.489,10.325 L37.489,7.679 L37.327,7.679 C37.129,7.679 36.976,7.634 36.976,7.346 L36.976,7.31 C36.976,7.175 37.039,7.004 37.309,7.004 L37.678,7.004 C37.696,7.004 37.723,6.995 37.759,6.995 C37.876,6.995 38.083,7.031 38.101,7.31 C38.29,7.121 38.551,6.968 38.911,6.968 C39.388,6.968 39.559,7.328 39.622,7.454 C39.964,6.995 40.414,6.968 40.558,6.968 C40.792,6.968 41.116,7.067 41.278,7.481 C41.377,7.751 41.386,8.048 41.386,8.327 L41.386,10.325 L41.539,10.325 C41.737,10.325 41.899,10.37 41.899,10.649 C41.899,10.856 41.836,11 41.566,11 L40.756,11 C40.423,11 40.414,10.784 40.414,10.658 L40.414,10.631 C40.414,10.334 40.657,10.325 40.756,10.325 L40.774,10.325 L40.774,8.381 C40.774,8.039 40.774,7.643 40.45,7.643 C40.027,7.643 39.739,8.165 39.739,8.912 L39.739,10.325 L39.892,10.325 C40.099,10.325 40.261,10.379 40.261,10.667 C40.261,10.829 40.189,11 39.928,11 L39.109,11 C38.776,11 38.767,10.784 38.767,10.658 L38.767,10.631 C38.767,10.334 39.01,10.325 39.109,10.325 L39.136,10.325 L39.136,8.381 C39.127,8.039 39.127,7.643 38.803,7.643 C38.38,7.643 38.092,8.165 38.101,8.912 L38.101,10.325 L38.272,10.325 C38.371,10.325 38.605,10.325 38.605,10.658 C38.605,10.847 38.542,11 38.272,11 L37.318,11 C37.129,11 36.976,10.937 36.976,10.667 Z M41.701,10.667 L41.701,10.658 C41.701,10.478 41.764,10.325 42.034,10.325 L42.214,10.325 L42.214,7.679 L42.052,7.679 C41.854,7.679 41.701,7.634 41.701,7.346 L41.701,7.31 C41.701,7.175 41.764,7.004 42.034,7.004 L42.403,7.004 C42.421,7.004 42.448,6.995 42.484,6.995 C42.601,6.995 42.808,7.031 42.826,7.31 C43.015,7.121 43.276,6.968 43.636,6.968 C44.113,6.968 44.284,7.328 44.347,7.454 C44.689,6.995 45.139,6.968 45.283,6.968 C45.517,6.968 45.841,7.067 46.003,7.481 C46.102,7.751 46.111,8.048 46.111,8.327 L46.111,10.325 L46.264,10.325 C46.462,10.325 46.624,10.37 46.624,10.649 C46.624,10.856 46.561,11 46.291,11 L45.481,11 C45.148,11 45.139,10.784 45.139,10.658 L45.139,10.631 C45.139,10.334 45.382,10.325 45.481,10.325 L45.499,10.325 L45.499,8.381 C45.499,8.039 45.499,7.643 45.175,7.643 C44.752,7.643 44.464,8.165 44.464,8.912 L44.464,10.325 L44.617,10.325 C44.824,10.325 44.986,10.379 44.986,10.667 C44.986,10.829 44.914,11 44.653,11 L43.834,11 C43.501,11 43.492,10.784 43.492,10.658 L43.492,10.631 C43.492,10.334 43.735,10.325 43.834,10.325 L43.861,10.325 L43.861,8.381 C43.852,8.039 43.852,7.643 43.528,7.643 C43.105,7.643 42.817,8.165 42.826,8.912 L42.826,10.325 L42.997,10.325 C43.096,10.325 43.33,10.325 43.33,10.658 C43.33,10.847 43.267,11 42.997,11 L42.043,11 C41.854,11 41.701,10.937 41.701,10.667 Z M46.948,8.984 C46.948,7.76 47.776,6.95 48.946,6.95 C50.098,6.95 50.701,7.742 50.701,9.011 C50.701,9.335 50.494,9.353 50.341,9.353 L47.74,9.353 C47.974,10.145 48.676,10.361 49.225,10.361 C49.612,10.361 49.801,10.154 49.891,10.001 C49.972,9.866 49.981,9.677 50.323,9.677 C50.521,9.677 50.692,9.758 50.692,9.947 C50.692,10.217 50.251,11.036 49.072,11.036 C47.812,11.036 46.948,10.217 46.948,8.984 Z M47.722,8.732 L49.927,8.732 C49.873,7.949 49.486,7.625 48.946,7.625 C48.244,7.625 47.803,8.066 47.722,8.732 Z M51.286,10.658 C51.286,10.991 51.52,11 51.637,11 L53.221,11 C53.374,11 53.572,10.964 53.572,10.667 C53.572,10.352 53.374,10.325 53.185,10.325 L52.807,10.325 L52.807,8.921 C52.807,7.94 53.437,7.643 53.851,7.643 C54.319,7.643 54.418,7.877 54.418,8.399 L54.418,10.325 L54.166,10.325 C54.04,10.325 53.806,10.325 53.806,10.667 C53.806,11 54.04,11 54.166,11 L55.597,11 C55.696,11 55.93,10.991 55.93,10.658 C55.93,10.325 55.714,10.325 55.57,10.325 L55.165,10.325 L55.165,8.408 C55.165,7.823 55.093,6.968 53.995,6.968 C53.437,6.968 53.068,7.211 52.807,7.472 L52.807,7.328 C52.807,7.031 52.591,7.004 52.465,7.004 L51.61,7.004 C51.448,7.004 51.286,7.067 51.286,7.337 C51.286,7.679 51.529,7.679 51.646,7.679 L52.051,7.679 L52.051,10.325 L51.637,10.325 C51.502,10.325 51.286,10.334 51.286,10.658 Z M56.254,9.02 C56.254,7.463 57.289,6.968 58.045,6.968 C58.522,6.968 58.882,7.166 59.134,7.391 L59.134,6.185 L58.738,6.185 C58.558,6.185 58.369,6.176 58.369,5.834 C58.369,5.564 58.531,5.51 58.684,5.501 L59.557,5.501 C59.872,5.501 59.89,5.708 59.89,5.861 L59.89,10.325 L60.295,10.325 C60.493,10.325 60.655,10.37 60.655,10.649 C60.655,10.847 60.592,11 60.322,11 L59.44,11 C59.296,11 59.134,10.937 59.134,10.667 L59.134,10.514 C58.864,10.802 58.495,11.036 57.973,11.036 C56.947,11.036 56.254,10.208 56.254,9.02 Z M57.01,9.002 C57.01,10.073 57.649,10.361 58.09,10.361 C58.81,10.361 59.143,9.56 59.134,9.281 L59.134,8.489 C59.134,8.138 58.747,7.643 58.18,7.643 C57.478,7.643 57.01,8.156 57.01,9.002 Z M4.135,20.649 C4.135,20.316 4.387,20.325 4.495,20.325 L4.72,20.325 L4.72,16.185 L4.495,16.185 C4.351,16.185 4.135,16.167 4.135,15.843 C4.135,15.573 4.288,15.501 4.486,15.501 L6.133,15.501 C7.528,15.501 7.897,16.419 7.897,17.049 C7.897,17.58 7.663,18.048 7.24,18.309 C7.366,18.435 7.654,18.705 7.654,19.299 L7.654,19.803 C7.654,20.298 7.753,20.361 7.888,20.397 C7.996,20.136 7.852,19.821 8.329,19.821 C8.698,19.821 8.698,20.091 8.698,20.145 C8.698,20.577 8.41,21.072 7.888,21.072 C7.492,21.072 6.898,20.856 6.898,19.821 L6.898,19.155 C6.871,19.02 6.736,18.588 6.106,18.588 L5.476,18.588 L5.476,20.325 L5.71,20.325 C5.908,20.325 6.07,20.37 6.07,20.658 C6.07,20.991 5.836,21 5.71,21 L4.486,21 C4.171,21 4.135,20.82 4.135,20.649 Z M5.476,17.913 L6.016,17.913 C6.943,17.913 7.141,17.391 7.141,17.049 C7.141,16.698 6.952,16.176 6.016,16.176 C5.989,16.176 5.962,16.185 5.935,16.185 L5.476,16.185 L5.476,17.913 Z M8.761,17.346 C8.761,17.661 8.968,17.679 9.139,17.679 L9.526,17.679 L9.526,19.983 C9.526,20.856 10.066,21.036 10.75,21.036 C11.191,21.036 11.542,20.928 11.893,20.703 C11.911,20.964 12.064,21 12.235,21 L13.054,21 C13.198,21 13.405,20.991 13.405,20.64 C13.405,20.379 13.243,20.325 13.063,20.325 L12.64,20.325 L12.64,17.346 C12.64,17.193 12.613,17.004 12.307,17.004 L11.443,17.004 C11.281,17.004 11.119,17.085 11.119,17.355 C11.119,17.679 11.344,17.679 11.533,17.679 L11.893,17.679 L11.893,19.587 C11.893,19.659 11.893,19.731 11.884,19.794 C11.839,20.055 11.542,20.361 10.921,20.361 C10.426,20.361 10.282,20.271 10.282,19.965 L10.282,17.391 C10.282,17.256 10.3,17.004 9.949,17.004 L9.067,17.004 C8.923,17.004 8.761,17.067 8.761,17.346 Z M13.486,15.861 C13.486,15.573 13.612,15.501 13.846,15.501 L14.629,15.501 C15.007,15.501 15.007,15.699 15.007,15.87 L15.007,17.427 C15.304,17.175 15.673,16.968 16.186,16.968 C17.023,16.968 17.887,17.58 17.887,18.993 C17.887,20.352 17.023,21.036 16.078,21.036 C15.592,21.036 15.277,20.838 15.007,20.568 L15.007,20.631 C15.007,20.802 14.989,21 14.683,21 L14.647,21 C14.431,21 14.251,20.964 14.251,20.667 L14.251,16.185 L13.81,16.185 C13.558,16.185 13.486,16.014 13.486,15.861 Z M15.007,19.317 C15.007,19.668 15.349,20.361 15.961,20.361 C16.663,20.361 17.131,19.848 17.131,19.002 C17.131,17.922 16.483,17.643 16.051,17.643 C15.457,17.643 15.007,18.138 15.007,18.498 L15.007,19.317 Z M18.409,17.346 C18.409,17.679 18.634,17.679 18.769,17.679 L19.084,17.679 C19.12,17.787 19.165,17.895 19.21,18.003 L20.281,20.865 C20.308,20.937 20.317,20.982 20.317,21.009 C20.317,21.054 20.299,21.09 20.281,21.162 C20.11,21.693 19.984,22.323 19.291,22.359 C19.291,22.332 19.3,22.296 19.3,22.269 C19.3,22.089 19.12,21.945 18.931,21.945 C18.805,21.945 18.553,22.026 18.553,22.332 C18.553,22.701 18.868,23.034 19.309,23.034 C20.236,23.034 20.641,22.062 20.821,21.495 L22.018,17.679 L22.324,17.679 C22.45,17.679 22.684,17.679 22.684,17.346 C22.684,17.157 22.612,17.004 22.351,17.004 L21.154,17.004 C21.037,17.004 20.794,17.004 20.794,17.328 C20.794,17.67 20.992,17.679 21.154,17.679 L21.388,17.679 C21.199,18.309 20.659,19.947 20.632,20.37 L20.596,20.181 L20.479,19.776 L20.317,19.272 L19.741,17.679 L19.939,17.679 C20.083,17.679 20.299,17.67 20.299,17.346 C20.299,17.004 20.056,17.004 19.939,17.004 L18.751,17.004 C18.58,17.004 18.409,17.04 18.409,17.346 Z M23.008,20.676 C23.008,21 23.26,21 23.35,21 L24.223,21 C24.367,21 24.574,20.973 24.574,20.667 C24.574,20.541 24.565,20.325 24.241,20.325 L24.097,20.325 L24.097,16.131 C24.142,16.599 24.43,17.526 24.718,18.435 C24.853,18.876 24.898,19.164 25.258,19.164 C25.438,19.164 25.555,19.074 25.618,18.948 C25.654,18.885 26.374,16.671 26.41,16.131 L26.419,16.365 L26.419,20.325 L26.266,20.325 C25.987,20.325 25.942,20.478 25.942,20.685 C25.942,20.784 25.951,21 26.275,21 L27.157,21 C27.301,21 27.508,20.973 27.508,20.667 C27.508,20.541 27.499,20.325 27.175,20.325 L27.031,20.325 L27.031,16.185 L27.175,16.185 C27.427,16.185 27.508,16.032 27.508,15.87 C27.508,15.627 27.436,15.501 27.166,15.501 L26.437,15.501 C26.059,15.501 26.005,15.843 25.969,15.951 C25.69,16.842 25.285,18.111 25.258,18.534 C25.195,17.967 24.574,16.032 24.547,15.96 C24.493,15.807 24.448,15.501 24.061,15.501 L23.35,15.501 C23.197,15.501 23.008,15.537 23.008,15.825 C23.008,15.951 23.017,16.185 23.341,16.185 L23.485,16.185 L23.485,20.325 L23.332,20.325 C23.062,20.325 23.008,20.478 23.008,20.676 Z M29.398,15.915 C29.398,16.077 29.515,16.32 29.929,16.32 C30.361,16.32 30.469,16.077 30.469,15.915 C30.469,15.663 30.262,15.501 29.938,15.501 C29.506,15.501 29.398,15.744 29.398,15.915 Z M28.264,20.658 C28.264,20.838 28.327,21 28.588,21 L31.468,21 C31.738,21 31.783,20.829 31.783,20.631 C31.783,20.388 31.621,20.325 31.432,20.325 L30.469,20.325 L30.469,17.355 C30.469,17.202 30.451,17.004 30.145,17.004 L28.687,17.004 C28.57,17.004 28.336,17.004 28.336,17.337 C28.336,17.679 28.552,17.679 28.723,17.679 L29.722,17.679 L29.722,20.325 L28.615,20.325 C28.408,20.325 28.264,20.37 28.264,20.658 Z M32.386,20.658 C32.386,20.991 32.62,21 32.737,21 L34.321,21 C34.474,21 34.672,20.964 34.672,20.667 C34.672,20.352 34.474,20.325 34.285,20.325 L33.907,20.325 L33.907,18.921 C33.907,17.94 34.537,17.643 34.951,17.643 C35.419,17.643 35.518,17.877 35.518,18.399 L35.518,20.325 L35.266,20.325 C35.14,20.325 34.906,20.325 34.906,20.667 C34.906,21 35.14,21 35.266,21 L36.697,21 C36.796,21 37.03,20.991 37.03,20.658 C37.03,20.325 36.814,20.325 36.67,20.325 L36.265,20.325 L36.265,18.408 C36.265,17.823 36.193,16.968 35.095,16.968 C34.537,16.968 34.168,17.211 33.907,17.472 L33.907,17.328 C33.907,17.031 33.691,17.004 33.565,17.004 L32.71,17.004 C32.548,17.004 32.386,17.067 32.386,17.337 C32.386,17.679 32.629,17.679 32.746,17.679 L33.151,17.679 L33.151,20.325 L32.737,20.325 C32.602,20.325 32.386,20.334 32.386,20.658 Z M37.498,18.984 C37.498,17.76 38.326,16.95 39.496,16.95 C40.648,16.95 41.251,17.742 41.251,19.011 C41.251,19.335 41.044,19.353 40.891,19.353 L38.29,19.353 C38.524,20.145 39.226,20.361 39.775,20.361 C40.162,20.361 40.351,20.154 40.441,20.001 C40.522,19.866 40.531,19.677 40.873,19.677 C41.071,19.677 41.242,19.758 41.242,19.947 C41.242,20.217 40.801,21.036 39.622,21.036 C38.362,21.036 37.498,20.217 37.498,18.984 Z M38.272,18.732 L40.477,18.732 C40.423,17.949 40.036,17.625 39.496,17.625 C38.794,17.625 38.353,18.066 38.272,18.732 Z" id="We-recommend-RubyMin" fill="#FFFFFF"></path>
        </g>
    </g>
</svg>