<?xml version="1.0" encoding="UTF-8"?>
<svg width="111px" height="25px" viewBox="0 0 111 25" version="1.1" xmlns="http://www.w3.org/2000/svg" xmlns:xlink="http://www.w3.org/1999/xlink">
    <!-- Generator: Sketch 43.2 (39069) - http://www.bohemiancoding.com/sketch -->
    <title>Group</title>
    <desc>Created with Sketch.</desc>
    <defs></defs>
    <g id="Page-1" stroke="none" stroke-width="1" fill="none" fill-rule="evenodd">
        <g id="Group">
            <rect id="Rectangle-1" fill="#A70432" fill-rule="nonzero" x="0" y="0" width="85.9999917" height="25"></rect>
            <rect id="Rectangle-1" fill="#000000" fill-rule="nonzero" x="86" y="0" width="25" height="25"></rect>
            <path d="M93.8697057,19.7412582 C92.3629905,19.3399478 91.1197446,18.3243868 90.494005,16.9894155 C89.9917666,15.9247144 90,15.9902344 90,10.2490387 L90,5.00743345 L91.7290174,5.00743345 L93.4580349,5.00743345 L93.4580349,10.0442885 C93.4580349,14.7699232 93.4745017,15.0975236 93.6144698,15.4087439 C93.8861725,15.9984245 94.528379,16.4324949 95.1294184,16.4324949 C95.5493226,16.4324949 96.2079959,16.0639445 96.4714653,15.6790141 L96.7102343,15.3432238 L96.7349346,10.1753286 L96.7596348,5.00743345 L98.4886523,5.02381346 L100.21767,5.04019348 L100.209436,9.86410832 C100.209436,13.1401116 100.234137,14.8272533 100.300004,15.1220936 C100.407038,15.6298741 100.818709,16.1294646 101.246847,16.2850748 L101.526783,16.3833549 L101.526783,18.1278266 C101.526783,20.1343786 101.625584,19.9705784 100.596407,19.7166882 C99.8965665,19.536508 99.4437286,19.3235678 98.8673894,18.9140674 L98.4721854,18.6356071 L98.2169496,18.8485473 C97.829979,19.1679576 96.8996029,19.6102181 96.3232638,19.7494482 C95.6645905,19.9050584 94.4625117,19.8968684 93.8697057,19.7412582 L93.8697057,19.7412582 L93.8697057,19.7412582 Z" id="Shape" fill="#FFFFFF" fill-rule="nonzero" transform="translate(95.764669, 12.436149) scale(-1, 1) rotate(-180.000000) translate(-95.764669, -12.436149) "></path>
            <path d="M102.26779,18.4152341 L102.26779,16.6789523 L102.662994,16.4660121 C103.395768,16.0647017 103.741572,14.9836207 103.395768,14.1646199 C103.239334,13.7878795 102.704161,13.2719089 102.152523,12.9606886 C101.633817,12.6576583 101.246847,12.272728 101.082178,11.8714175 C100.901043,11.4537271 100.91751,10.6674864 101.106879,10.1678958 C101.246847,9.8157255 103.815673,6.03194172 104.276744,5.5077812 C104.515513,5.23751093 105.042452,5.0081907 105.437656,5.0081907 C105.849327,5.0081907 106.549167,5.32760102 106.779703,5.61425131 C107.174907,6.12203181 107.216074,6.88370258 106.878504,7.54709324 C106.779703,7.73546343 106.384499,8.33333403 105.981061,8.88206456 C105.585857,9.43079513 105.108319,10.1105658 104.927184,10.3808361 L104.58138,10.8804266 L104.795449,10.9950867 C104.910717,11.0606067 105.240054,11.3636371 105.536457,11.6748574 C106.450366,12.6658483 106.960838,13.9598697 106.960838,15.327601 C106.960838,17.9074536 105.297688,19.7092553 102.58066,20.1023758 L102.26779,20.1515158 L102.26779,18.4152341 L102.26779,18.4152341 L102.26779,18.4152341 Z" id="Shape" fill="#FFFFFF" fill-rule="nonzero" transform="translate(104.030779, 12.579853) scale(-1, 1) rotate(-180.000000) translate(-104.030779, -12.579853) "></path>
            <text id="We-recommend-RubyMin" font-family="Verdana-Bold, Verdana" font-size="9" font-weight="bold" fill="#000000">
                <tspan x="4.10000038" y="11.0999999">We recommend</tspan>
                <tspan x="4.10000038" y="22.0999999">RubyMine</tspan>
            </text>
            <text id="We-recommend-RubyMin" font-family="Verdana-Bold, Verdana" font-size="9" font-weight="bold" fill="#FFFFFF">
                <tspan x="4" y="11">We recommend</tspan>
                <tspan x="4" y="22">RubyMine</tspan>
            </text>
        </g>
    </g>
</svg>